<svg xmlns="http://www.w3.org/2000/svg" xmlns:xlink="http://www.w3.org/1999/xlink" width="600" zoomAndPan="magnify" viewBox="0 0 450 30.000001" height="40" preserveAspectRatio="xMidYMid meet" version="1.0"><defs><clipPath id="a5a1c51a48"><path d="M 221 12 L 226.039062 12 L 226.039062 17 L 221 17 Z M 221 12 " clip-rule="nonzero"/></clipPath><clipPath id="f7411ecef4"><path d="M 197.007812 4 L 216 4 L 216 25 L 197.007812 25 Z M 197.007812 4 " clip-rule="nonzero"/></clipPath><clipPath id="f1e75ab62d"><path d="M 197.007812 7 L 215 7 L 215 25 L 197.007812 25 Z M 197.007812 7 " clip-rule="nonzero"/></clipPath><clipPath id="72cff32d0b"><path d="M 233 12 L 238.109375 12 L 238.109375 17 L 233 17 Z M 233 12 " clip-rule="nonzero"/></clipPath><clipPath id="13f151a0ad"><path d="M 226.5 11.617188 L 228 11.617188 L 228 17.421875 L 226.5 17.421875 Z M 226.5 11.617188 " clip-rule="nonzero"/></clipPath><clipPath id="ef9bb73c75"><path d="M 226.5 11.617188 L 227 11.617188 L 227 17.421875 L 226.5 17.421875 Z M 226.5 11.617188 " clip-rule="nonzero"/></clipPath><clipPath id="6378f3b7e1"><path d="M 245 12 L 250.488281 12 L 250.488281 17 L 245 17 Z M 245 12 " clip-rule="nonzero"/></clipPath><clipPath id="d519ff2478"><path d="M 238.875 11.617188 L 240 11.617188 L 240 17.421875 L 238.875 17.421875 Z M 238.875 11.617188 " clip-rule="nonzero"/></clipPath><clipPath id="24f22d0ba0"><path d="M 238.875 11.617188 L 239 11.617188 L 239 17.421875 L 238.875 17.421875 Z M 238.875 11.617188 " clip-rule="nonzero"/></clipPath><clipPath id="628e4fcaa1"><path d="M 165 4.351562 L 183 4.351562 L 183 24.675781 L 165 24.675781 Z M 165 4.351562 " clip-rule="nonzero"/></clipPath><clipPath id="47de1d7b3b"><path d="M 165 4.351562 L 177 4.351562 L 177 24.675781 L 165 24.675781 Z M 165 4.351562 " clip-rule="nonzero"/></clipPath><clipPath id="b97ecb3826"><path d="M 144 4.351562 L 162 4.351562 L 162 24.675781 L 144 24.675781 Z M 144 4.351562 " clip-rule="nonzero"/></clipPath><clipPath id="1267ceabaf"><path d="M 144 4.351562 L 156 4.351562 L 156 24.675781 L 144 24.675781 Z M 144 4.351562 " clip-rule="nonzero"/></clipPath><clipPath id="35c7cac86f"><path d="M 123 4.351562 L 140 4.351562 L 140 24.675781 L 123 24.675781 Z M 123 4.351562 " clip-rule="nonzero"/></clipPath><clipPath id="6b7fcc217c"><path d="M 123 4.351562 L 135 4.351562 L 135 24.675781 L 123 24.675781 Z M 123 4.351562 " clip-rule="nonzero"/></clipPath><clipPath id="9efd652c03"><path d="M 102 4.351562 L 119 4.351562 L 119 24.675781 L 102 24.675781 Z M 102 4.351562 " clip-rule="nonzero"/></clipPath><clipPath id="1f04cad47a"><path d="M 102 4.351562 L 114 4.351562 L 114 24.675781 L 102 24.675781 Z M 102 4.351562 " clip-rule="nonzero"/></clipPath><clipPath id="725c53820d"><path d="M 258 12 L 262.863281 12 L 262.863281 17 L 258 17 Z M 258 12 " clip-rule="nonzero"/></clipPath><clipPath id="8b40d2b336"><path d="M 251.25 11.617188 L 253 11.617188 L 253 17.421875 L 251.25 17.421875 Z M 251.25 11.617188 " clip-rule="nonzero"/></clipPath><clipPath id="5dc4c5f00c"><path d="M 270 12 L 275.242188 12 L 275.242188 17 L 270 17 Z M 270 12 " clip-rule="nonzero"/></clipPath><clipPath id="65ea6e7f7c"><path d="M 263.628906 11.617188 L 265 11.617188 L 265 17.421875 L 263.628906 17.421875 Z M 263.628906 11.617188 " clip-rule="nonzero"/></clipPath><clipPath id="09195ce730"><path d="M 263.628906 11.617188 L 264 11.617188 L 264 17.421875 L 263.628906 17.421875 Z M 263.628906 11.617188 " clip-rule="nonzero"/></clipPath><clipPath id="901f7e8fd6"><path d="M 276.003906 12 L 282 12 L 282 17 L 276.003906 17 Z M 276.003906 12 " clip-rule="nonzero"/></clipPath><clipPath id="62fa8ca81d"><path d="M 282 12 L 287.617188 12 L 287.617188 17 L 282 17 Z M 282 12 " clip-rule="nonzero"/></clipPath><clipPath id="79763111f4"><path d="M 276.003906 11.617188 L 278 11.617188 L 278 17.421875 L 276.003906 17.421875 Z M 276.003906 11.617188 " clip-rule="nonzero"/></clipPath><clipPath id="474b23b662"><path d="M 295 12 L 299.992188 12 L 299.992188 17 L 295 17 Z M 295 12 " clip-rule="nonzero"/></clipPath><clipPath id="5c4103bf31"><path d="M 288.378906 11.617188 L 290 11.617188 L 290 17.421875 L 288.378906 17.421875 Z M 288.378906 11.617188 " clip-rule="nonzero"/></clipPath><clipPath id="3c3a74ac3d"><path d="M 288.378906 11.617188 L 289 11.617188 L 289 17.421875 L 288.378906 17.421875 Z M 288.378906 11.617188 " clip-rule="nonzero"/></clipPath><clipPath id="558f2a4f88"><path d="M 307 12 L 312.371094 12 L 312.371094 17 L 307 17 Z M 307 12 " clip-rule="nonzero"/></clipPath><clipPath id="1b98d92750"><path d="M 300.757812 11.617188 L 302 11.617188 L 302 17.421875 L 300.757812 17.421875 Z M 300.757812 11.617188 " clip-rule="nonzero"/></clipPath><clipPath id="561870e514"><path d="M 300.757812 11.617188 L 301 11.617188 L 301 17.421875 L 300.757812 17.421875 Z M 300.757812 11.617188 " clip-rule="nonzero"/></clipPath><clipPath id="b6f5f26ed6"><path d="M 313.132812 12 L 319 12 L 319 17 L 313.132812 17 Z M 313.132812 12 " clip-rule="nonzero"/></clipPath><clipPath id="6ea3d395c2"><path d="M 319 12 L 324.746094 12 L 324.746094 17 L 319 17 Z M 319 12 " clip-rule="nonzero"/></clipPath><clipPath id="c4992570c6"><path d="M 313.132812 11.617188 L 315 11.617188 L 315 17.421875 L 313.132812 17.421875 Z M 313.132812 11.617188 " clip-rule="nonzero"/></clipPath><clipPath id="f49c5988b7"><path d="M 332 12 L 337.121094 12 L 337.121094 17 L 332 17 Z M 332 12 " clip-rule="nonzero"/></clipPath><clipPath id="41ac1036b6"><path d="M 325.507812 11.617188 L 327 11.617188 L 327 17.421875 L 325.507812 17.421875 Z M 325.507812 11.617188 " clip-rule="nonzero"/></clipPath><clipPath id="f37abaa83a"><path d="M 325.507812 11.617188 L 326 11.617188 L 326 17.421875 L 325.507812 17.421875 Z M 325.507812 11.617188 " clip-rule="nonzero"/></clipPath><clipPath id="2d2c8b7983"><path d="M 344 12 L 349.5 12 L 349.5 17 L 344 17 Z M 344 12 " clip-rule="nonzero"/></clipPath><clipPath id="3390c1b49d"><path d="M 337.886719 11.617188 L 339 11.617188 L 339 17.421875 L 337.886719 17.421875 Z M 337.886719 11.617188 " clip-rule="nonzero"/></clipPath><clipPath id="f6d1ce4ebc"><path d="M 337.886719 11.617188 L 338 11.617188 L 338 17.421875 L 337.886719 17.421875 Z M 337.886719 11.617188 " clip-rule="nonzero"/></clipPath><clipPath id="f74cd7410d"><path d="M 357 12 L 361.875 12 L 361.875 17 L 357 17 Z M 357 12 " clip-rule="nonzero"/></clipPath><clipPath id="d59249b98d"><path d="M 350.261719 11.617188 L 352 11.617188 L 352 17.421875 L 350.261719 17.421875 Z M 350.261719 11.617188 " clip-rule="nonzero"/></clipPath><clipPath id="7f2b1db9d3"><path d="M 369 12 L 374.25 12 L 374.25 17 L 369 17 Z M 369 12 " clip-rule="nonzero"/></clipPath><clipPath id="17d3739407"><path d="M 362.636719 11.617188 L 364 11.617188 L 364 17.421875 L 362.636719 17.421875 Z M 362.636719 11.617188 " clip-rule="nonzero"/></clipPath><clipPath id="2c7553b6e9"><path d="M 20 12 L 25.441406 12 L 25.441406 17 L 20 17 Z M 20 12 " clip-rule="nonzero"/></clipPath><clipPath id="509f4d2ffa"><path d="M 13.828125 11.617188 L 15 11.617188 L 15 17.421875 L 13.828125 17.421875 Z M 13.828125 11.617188 " clip-rule="nonzero"/></clipPath><clipPath id="1943d3a568"><path d="M 13.828125 11.617188 L 14 11.617188 L 14 17.421875 L 13.828125 17.421875 Z M 13.828125 11.617188 " clip-rule="nonzero"/></clipPath><clipPath id="80f80938a2"><path d="M 26.207031 12 L 32 12 L 32 17 L 26.207031 17 Z M 26.207031 12 " clip-rule="nonzero"/></clipPath><clipPath id="917c313ed5"><path d="M 33 12 L 37.820312 12 L 37.820312 17 L 33 17 Z M 33 12 " clip-rule="nonzero"/></clipPath><clipPath id="0e6b491699"><path d="M 26.207031 11.617188 L 28 11.617188 L 28 17.421875 L 26.207031 17.421875 Z M 26.207031 11.617188 " clip-rule="nonzero"/></clipPath><clipPath id="4ec21fccdb"><path d="M 45 12 L 50.195312 12 L 50.195312 17 L 45 17 Z M 45 12 " clip-rule="nonzero"/></clipPath><clipPath id="195fcbcb97"><path d="M 38.582031 11.617188 L 40 11.617188 L 40 17.421875 L 38.582031 17.421875 Z M 38.582031 11.617188 " clip-rule="nonzero"/></clipPath><clipPath id="715d88fb03"><path d="M 38.582031 11.617188 L 39 11.617188 L 39 17.421875 L 38.582031 17.421875 Z M 38.582031 11.617188 " clip-rule="nonzero"/></clipPath><clipPath id="9a667e8572"><path d="M 57 12 L 62.570312 12 L 62.570312 17 L 57 17 Z M 57 12 " clip-rule="nonzero"/></clipPath><clipPath id="608d4cd4a9"><path d="M 50.957031 11.617188 L 52 11.617188 L 52 17.421875 L 50.957031 17.421875 Z M 50.957031 11.617188 " clip-rule="nonzero"/></clipPath><clipPath id="845097f8e9"><path d="M 70 12 L 74.949219 12 L 74.949219 17 L 70 17 Z M 70 12 " clip-rule="nonzero"/></clipPath><clipPath id="a20e566c32"><path d="M 63.335938 11.617188 L 65 11.617188 L 65 17.421875 L 63.335938 17.421875 Z M 63.335938 11.617188 " clip-rule="nonzero"/></clipPath><clipPath id="bf57616ba2"><path d="M 63.335938 11.617188 L 64 11.617188 L 64 17.421875 L 63.335938 17.421875 Z M 63.335938 11.617188 " clip-rule="nonzero"/></clipPath><clipPath id="8195a35c75"><path d="M 82 12 L 87.324219 12 L 87.324219 17 L 82 17 Z M 82 12 " clip-rule="nonzero"/></clipPath><clipPath id="0f40555dc8"><path d="M 75.710938 11.617188 L 77 11.617188 L 77 17.421875 L 75.710938 17.421875 Z M 75.710938 11.617188 " clip-rule="nonzero"/></clipPath><clipPath id="5d28ae6d34"><path d="M 75.710938 11.617188 L 76 11.617188 L 76 17.421875 L 75.710938 17.421875 Z M 75.710938 11.617188 " clip-rule="nonzero"/></clipPath><clipPath id="92cbae1309"><path d="M 88.085938 12 L 94 12 L 94 17 L 88.085938 17 Z M 88.085938 12 " clip-rule="nonzero"/></clipPath><clipPath id="22675a4f63"><path d="M 94 12 L 99.699219 12 L 99.699219 17 L 94 17 Z M 94 12 " clip-rule="nonzero"/></clipPath><clipPath id="c63e58b83a"><path d="M 88.085938 11.617188 L 90 11.617188 L 90 17.421875 L 88.085938 17.421875 Z M 88.085938 11.617188 " clip-rule="nonzero"/></clipPath><clipPath id="bcd62bfed7"><path d="M 375.015625 12 L 381 12 L 381 17 L 375.015625 17 Z M 375.015625 12 " clip-rule="nonzero"/></clipPath><clipPath id="13bfdbbf1c"><path d="M 381 12 L 386.628906 12 L 386.628906 17 L 381 17 Z M 381 12 " clip-rule="nonzero"/></clipPath><clipPath id="0b48357ef8"><path d="M 375.015625 11.617188 L 377 11.617188 L 377 17.421875 L 375.015625 17.421875 Z M 375.015625 11.617188 " clip-rule="nonzero"/></clipPath><clipPath id="0bb3bc34ae"><path d="M 394 12 L 399.003906 12 L 399.003906 17 L 394 17 Z M 394 12 " clip-rule="nonzero"/></clipPath><clipPath id="c01ee20306"><path d="M 387.390625 11.617188 L 389 11.617188 L 389 17.421875 L 387.390625 17.421875 Z M 387.390625 11.617188 " clip-rule="nonzero"/></clipPath><clipPath id="022d6fea52"><path d="M 387.390625 11.617188 L 388 11.617188 L 388 17.421875 L 387.390625 17.421875 Z M 387.390625 11.617188 " clip-rule="nonzero"/></clipPath><clipPath id="f745fb5e76"><path d="M 406 12 L 411.378906 12 L 411.378906 17 L 406 17 Z M 406 12 " clip-rule="nonzero"/></clipPath><clipPath id="86c2d9734d"><path d="M 399.765625 11.617188 L 401 11.617188 L 401 17.421875 L 399.765625 17.421875 Z M 399.765625 11.617188 " clip-rule="nonzero"/></clipPath><clipPath id="d76b195797"><path d="M 399.765625 11.617188 L 400 11.617188 L 400 17.421875 L 399.765625 17.421875 Z M 399.765625 11.617188 " clip-rule="nonzero"/></clipPath><clipPath id="1519d5c710"><path d="M 412.144531 12 L 418 12 L 418 17 L 412.144531 17 Z M 412.144531 12 " clip-rule="nonzero"/></clipPath><clipPath id="68d0ae7687"><path d="M 418 12 L 423.757812 12 L 423.757812 17 L 418 17 Z M 418 12 " clip-rule="nonzero"/></clipPath><clipPath id="600a3af879"><path d="M 412.144531 11.617188 L 414 11.617188 L 414 17.421875 L 412.144531 17.421875 Z M 412.144531 11.617188 " clip-rule="nonzero"/></clipPath><clipPath id="08ec50fa63"><path d="M 431 12 L 436.132812 12 L 436.132812 17 L 431 17 Z M 431 12 " clip-rule="nonzero"/></clipPath><clipPath id="91ad4ea21d"><path d="M 424.519531 11.617188 L 426 11.617188 L 426 17.421875 L 424.519531 17.421875 Z M 424.519531 11.617188 " clip-rule="nonzero"/></clipPath><clipPath id="753e6a9bb4"><path d="M 424.519531 11.617188 L 425 11.617188 L 425 17.421875 L 424.519531 17.421875 Z M 424.519531 11.617188 " clip-rule="nonzero"/></clipPath></defs><path fill="#ed5564" d="M 217.574219 12.097656 C 216.238281 12.097656 215.152344 13.183594 215.152344 14.515625 C 215.152344 15.851562 216.238281 16.9375 217.574219 16.9375 C 218.90625 16.9375 219.992188 15.851562 219.992188 14.515625 C 219.992188 13.183594 218.90625 12.097656 217.574219 12.097656 Z M 217.574219 12.097656 " fill-opacity="1" fill-rule="nonzero"/><g clip-path="url(#a5a1c51a48)"><path fill="#ed5564" d="M 223.621094 12.097656 C 222.289062 12.097656 221.203125 13.183594 221.203125 14.515625 C 221.203125 15.851562 222.289062 16.9375 223.621094 16.9375 C 224.957031 16.9375 226.039062 15.851562 226.039062 14.515625 C 226.039062 13.183594 224.957031 12.097656 223.621094 12.097656 Z M 223.621094 12.097656 " fill-opacity="1" fill-rule="nonzero"/></g><g clip-path="url(#f7411ecef4)"><path fill="#ffce54" d="M 215.429688 10.320312 L 215.136719 9.792969 C 214.703125 9.019531 214.160156 8.304688 213.527344 7.671875 C 211.703125 5.84375 209.269531 4.839844 206.683594 4.839844 C 204.101562 4.839844 201.671875 5.84375 199.84375 7.671875 C 198.015625 9.5 197.007812 11.929688 197.007812 14.515625 C 197.007812 17.101562 198.015625 19.53125 199.84375 21.359375 C 201.671875 23.1875 204.101562 24.195312 206.683594 24.195312 C 209.269531 24.195312 211.699219 23.1875 213.527344 21.359375 C 214.160156 20.726562 214.703125 20.011719 215.136719 19.238281 L 215.429688 18.710938 L 207.925781 14.515625 Z M 215.429688 10.320312 " fill-opacity="1" fill-rule="nonzero"/></g><g clip-path="url(#f1e75ab62d)"><path fill="#ffffff" d="M 207.894531 22.984375 C 205.308594 22.984375 202.882812 21.976562 201.050781 20.148438 C 199.226562 18.320312 198.21875 15.890625 198.21875 13.308594 C 198.21875 11.007812 199.015625 8.832031 200.476562 7.09375 C 200.257812 7.277344 200.046875 7.46875 199.84375 7.671875 C 198.015625 9.5 197.007812 11.929688 197.007812 14.515625 C 197.007812 17.101562 198.015625 19.53125 199.84375 21.359375 C 201.671875 23.1875 204.101562 24.195312 206.683594 24.195312 C 209.269531 24.195312 211.699219 23.1875 213.527344 21.359375 C 213.730469 21.15625 213.925781 20.945312 214.109375 20.726562 C 212.371094 22.1875 210.195312 22.984375 207.894531 22.984375 Z M 207.894531 22.984375 " fill-opacity="0.2" fill-rule="nonzero"/></g><path fill="#434a54" d="M 208.144531 10.53125 C 207.675781 11.003906 206.90625 11.003906 206.4375 10.53125 C 205.960938 10.058594 205.960938 9.292969 206.4375 8.820312 C 206.90625 8.351562 207.675781 8.351562 208.144531 8.820312 C 208.617188 9.292969 208.617188 10.058594 208.144531 10.53125 Z M 208.144531 10.53125 " fill-opacity="1" fill-rule="nonzero"/><path fill="#ffffff" d="M 217.394531 14.339844 C 217.160156 14.574219 216.777344 14.574219 216.542969 14.339844 C 216.304688 14.101562 216.304688 13.71875 216.542969 13.484375 C 216.777344 13.246094 217.160156 13.246094 217.394531 13.484375 C 217.632812 13.71875 217.632812 14.101562 217.394531 14.339844 Z M 217.394531 14.339844 " fill-opacity="0.2" fill-rule="nonzero"/><path fill="#ffffff" d="M 223.445312 14.339844 C 223.207031 14.574219 222.824219 14.574219 222.589844 14.339844 C 222.351562 14.101562 222.351562 13.71875 222.589844 13.484375 C 222.824219 13.246094 223.207031 13.246094 223.445312 13.484375 C 223.679688 13.71875 223.679688 14.101562 223.445312 14.339844 Z M 223.445312 14.339844 " fill-opacity="0.2" fill-rule="nonzero"/><path fill="#ed5564" d="M 229.679688 12.046875 C 228.347656 12.046875 227.261719 13.132812 227.261719 14.464844 C 227.261719 15.800781 228.347656 16.886719 229.679688 16.886719 C 231.015625 16.886719 232.101562 15.800781 232.101562 14.464844 C 232.101562 13.132812 231.015625 12.046875 229.679688 12.046875 Z M 229.679688 12.046875 " fill-opacity="1" fill-rule="nonzero"/><g clip-path="url(#72cff32d0b)"><path fill="#ed5564" d="M 235.730469 12.046875 C 234.394531 12.046875 233.308594 13.132812 233.308594 14.464844 C 233.308594 15.800781 234.394531 16.886719 235.730469 16.886719 C 237.0625 16.886719 238.148438 15.800781 238.148438 14.464844 C 238.148438 13.132812 237.0625 12.046875 235.730469 12.046875 Z M 235.730469 12.046875 " fill-opacity="1" fill-rule="nonzero"/></g><g clip-path="url(#13f151a0ad)"><path fill="#ffce54" d="M 227.539062 10.269531 L 227.242188 9.742188 C 226.808594 8.96875 226.269531 8.253906 225.636719 7.625 C 223.808594 5.792969 221.378906 4.789062 218.792969 4.789062 C 216.207031 4.789062 213.777344 5.792969 211.949219 7.625 C 210.125 9.449219 209.117188 11.878906 209.117188 14.464844 C 209.117188 17.050781 210.125 19.480469 211.949219 21.308594 C 213.777344 23.136719 216.207031 24.144531 218.792969 24.144531 C 221.378906 24.144531 223.808594 23.136719 225.636719 21.308594 C 226.269531 20.675781 226.808594 19.960938 227.242188 19.1875 L 227.539062 18.660156 L 220.035156 14.464844 Z M 227.539062 10.269531 " fill-opacity="1" fill-rule="nonzero"/></g><g clip-path="url(#ef9bb73c75)"><path fill="#ffffff" d="M 220.003906 22.933594 C 217.417969 22.933594 214.988281 21.925781 213.160156 20.097656 C 211.332031 18.269531 210.328125 15.839844 210.328125 13.257812 C 210.328125 10.957031 211.121094 8.78125 212.582031 7.042969 C 212.363281 7.226562 212.152344 7.417969 211.949219 7.625 C 210.125 9.449219 209.117188 11.878906 209.117188 14.464844 C 209.117188 17.050781 210.125 19.480469 211.949219 21.308594 C 213.777344 23.136719 216.207031 24.144531 218.792969 24.144531 C 221.378906 24.144531 223.808594 23.136719 225.636719 21.308594 C 225.839844 21.105469 226.03125 20.894531 226.214844 20.675781 C 224.476562 22.136719 222.300781 22.933594 220.003906 22.933594 Z M 220.003906 22.933594 " fill-opacity="0.2" fill-rule="nonzero"/></g><path fill="#ffffff" d="M 229.503906 14.289062 C 229.269531 14.523438 228.886719 14.523438 228.648438 14.289062 C 228.410156 14.050781 228.410156 13.667969 228.648438 13.433594 C 228.886719 13.195312 229.269531 13.195312 229.503906 13.433594 C 229.742188 13.667969 229.742188 14.050781 229.503906 14.289062 Z M 229.503906 14.289062 " fill-opacity="0.2" fill-rule="nonzero"/><path fill="#ffffff" d="M 235.554688 14.289062 C 235.316406 14.523438 234.933594 14.523438 234.695312 14.289062 C 234.460938 14.050781 234.460938 13.667969 234.695312 13.433594 C 234.933594 13.195312 235.316406 13.195312 235.554688 13.433594 C 235.789062 13.667969 235.789062 14.050781 235.554688 14.289062 Z M 235.554688 14.289062 " fill-opacity="0.2" fill-rule="nonzero"/><path fill="#ed5564" d="M 242.058594 12.046875 C 240.722656 12.046875 239.636719 13.132812 239.636719 14.464844 C 239.636719 15.800781 240.722656 16.886719 242.058594 16.886719 C 243.390625 16.886719 244.476562 15.800781 244.476562 14.464844 C 244.476562 13.132812 243.390625 12.046875 242.058594 12.046875 Z M 242.058594 12.046875 " fill-opacity="1" fill-rule="nonzero"/><g clip-path="url(#6378f3b7e1)"><path fill="#ed5564" d="M 248.105469 12.046875 C 246.773438 12.046875 245.6875 13.132812 245.6875 14.464844 C 245.6875 15.800781 246.773438 16.886719 248.105469 16.886719 C 249.441406 16.886719 250.523438 15.800781 250.523438 14.464844 C 250.523438 13.132812 249.441406 12.046875 248.105469 12.046875 Z M 248.105469 12.046875 " fill-opacity="1" fill-rule="nonzero"/></g><g clip-path="url(#d519ff2478)"><path fill="#ffce54" d="M 239.914062 10.269531 L 239.621094 9.742188 C 239.1875 8.96875 238.644531 8.253906 238.011719 7.625 C 236.183594 5.792969 233.753906 4.789062 231.167969 4.789062 C 228.585938 4.789062 226.15625 5.792969 224.328125 7.625 C 222.5 9.449219 221.492188 11.878906 221.492188 14.464844 C 221.492188 17.050781 222.5 19.480469 224.328125 21.308594 C 226.15625 23.136719 228.585938 24.144531 231.167969 24.144531 C 233.753906 24.144531 236.183594 23.136719 238.011719 21.308594 C 238.644531 20.675781 239.1875 19.960938 239.621094 19.1875 L 239.914062 18.660156 L 232.410156 14.464844 Z M 239.914062 10.269531 " fill-opacity="1" fill-rule="nonzero"/></g><g clip-path="url(#24f22d0ba0)"><path fill="#ffffff" d="M 232.378906 22.933594 C 229.792969 22.933594 227.367188 21.925781 225.535156 20.097656 C 223.710938 18.269531 222.703125 15.839844 222.703125 13.257812 C 222.703125 10.957031 223.5 8.78125 224.960938 7.042969 C 224.742188 7.226562 224.53125 7.417969 224.328125 7.625 C 222.5 9.449219 221.492188 11.878906 221.492188 14.464844 C 221.492188 17.050781 222.5 19.480469 224.328125 21.308594 C 226.15625 23.136719 228.585938 24.144531 231.167969 24.144531 C 233.753906 24.144531 236.183594 23.136719 238.011719 21.308594 C 238.214844 21.105469 238.410156 20.894531 238.59375 20.675781 C 236.851562 22.136719 234.679688 22.933594 232.378906 22.933594 Z M 232.378906 22.933594 " fill-opacity="0.2" fill-rule="nonzero"/></g><path fill="#ffffff" d="M 241.878906 14.289062 C 241.644531 14.523438 241.261719 14.523438 241.027344 14.289062 C 240.789062 14.050781 240.789062 13.667969 241.027344 13.433594 C 241.261719 13.195312 241.644531 13.195312 241.878906 13.433594 C 242.117188 13.667969 242.117188 14.050781 241.878906 14.289062 Z M 241.878906 14.289062 " fill-opacity="0.2" fill-rule="nonzero"/><path fill="#ffffff" d="M 247.929688 14.289062 C 247.691406 14.523438 247.308594 14.523438 247.074219 14.289062 C 246.835938 14.050781 246.835938 13.667969 247.074219 13.433594 C 247.308594 13.195312 247.691406 13.195312 247.929688 13.433594 C 248.164062 13.667969 248.164062 14.050781 247.929688 14.289062 Z M 247.929688 14.289062 " fill-opacity="0.2" fill-rule="nonzero"/><g clip-path="url(#628e4fcaa1)"><path fill="#59ee72" d="M 173.476562 4.359375 C 168.992188 4.519531 165.503906 8.339844 165.503906 12.828125 L 165.503906 24.546875 C 165.503906 24.660156 165.640625 24.710938 165.714844 24.632812 L 167.984375 22.15625 C 168.132812 21.992188 168.390625 21.992188 168.539062 22.15625 L 170.738281 24.550781 C 170.890625 24.71875 171.152344 24.71875 171.304688 24.550781 L 173.503906 22.15625 C 173.652344 21.992188 173.90625 21.992188 174.058594 22.15625 L 176.253906 24.550781 C 176.40625 24.71875 176.667969 24.71875 176.824219 24.550781 L 179.019531 22.15625 C 179.167969 21.992188 179.425781 21.992188 179.574219 22.15625 L 181.84375 24.632812 C 181.917969 24.710938 182.054688 24.660156 182.054688 24.546875 L 182.054688 12.628906 C 182.054688 7.957031 178.1875 4.191406 173.476562 4.359375 Z M 173.476562 4.359375 " fill-opacity="1" fill-rule="nonzero"/></g><g clip-path="url(#47de1d7b3b)"><path fill="#4ed068" d="M 169.640625 13.386719 C 169.640625 9.132812 172.78125 5.480469 176.929688 4.976562 C 175.871094 4.539062 174.703125 4.316406 173.476562 4.359375 C 168.992188 4.519531 165.503906 8.339844 165.503906 12.828125 L 165.503906 24.546875 C 165.503906 24.660156 165.640625 24.710938 165.714844 24.632812 L 167.984375 22.15625 C 168.132812 21.992188 168.390625 21.992188 168.539062 22.15625 L 169.640625 23.355469 Z M 169.640625 13.386719 " fill-opacity="1" fill-rule="nonzero"/></g><path fill="#ffffff" d="M 171.015625 16.390625 C 169.785156 16.390625 168.789062 15.394531 168.789062 14.164062 L 168.789062 13.351562 C 168.789062 12.121094 169.785156 11.125 171.015625 11.125 C 172.246094 11.125 173.246094 12.121094 173.246094 13.351562 L 173.246094 14.164062 C 173.246094 15.394531 172.246094 16.390625 171.015625 16.390625 Z M 171.015625 16.390625 " fill-opacity="1" fill-rule="nonzero"/><path fill="#e4eaf6" d="M 172.230469 15.984375 C 171 15.984375 170.003906 14.988281 170.003906 13.757812 L 170.003906 12.945312 C 170.003906 12.195312 170.378906 11.53125 170.949219 11.128906 C 169.75 11.164062 168.789062 12.144531 168.789062 13.351562 L 168.789062 14.164062 C 168.789062 15.394531 169.785156 16.390625 171.015625 16.390625 C 171.496094 16.390625 171.9375 16.238281 172.300781 15.980469 C 172.277344 15.980469 172.253906 15.984375 172.230469 15.984375 Z M 172.230469 15.984375 " fill-opacity="1" fill-rule="nonzero"/><path fill="#82b9ff" d="M 171.625 14.769531 C 171.175781 14.769531 170.8125 14.40625 170.8125 13.960938 L 170.8125 13.554688 C 170.8125 13.105469 171.175781 12.746094 171.625 12.746094 C 172.070312 12.746094 172.433594 13.105469 172.433594 13.554688 L 172.433594 13.960938 C 172.433594 14.40625 172.070312 14.769531 171.625 14.769531 Z M 171.625 14.769531 " fill-opacity="1" fill-rule="nonzero"/><path fill="#ffffff" d="M 176.542969 16.390625 C 175.3125 16.390625 174.316406 15.394531 174.316406 14.164062 L 174.316406 13.351562 C 174.316406 12.121094 175.3125 11.125 176.542969 11.125 C 177.773438 11.125 178.769531 12.121094 178.769531 13.351562 L 178.769531 14.164062 C 178.769531 15.394531 177.773438 16.390625 176.542969 16.390625 Z M 176.542969 16.390625 " fill-opacity="1" fill-rule="nonzero"/><path fill="#e4eaf6" d="M 177.757812 15.984375 C 176.527344 15.984375 175.53125 14.988281 175.53125 13.757812 L 175.53125 12.945312 C 175.53125 12.195312 175.902344 11.53125 176.476562 11.128906 C 175.277344 11.164062 174.316406 12.144531 174.316406 13.351562 L 174.316406 14.164062 C 174.316406 15.394531 175.3125 16.390625 176.542969 16.390625 C 177.019531 16.390625 177.464844 16.238281 177.828125 15.980469 C 177.804688 15.980469 177.78125 15.984375 177.757812 15.984375 Z M 177.757812 15.984375 " fill-opacity="1" fill-rule="nonzero"/><path fill="#82b9ff" d="M 177.152344 14.769531 C 176.703125 14.769531 176.339844 14.40625 176.339844 13.960938 L 176.339844 13.554688 C 176.339844 13.105469 176.703125 12.746094 177.152344 12.746094 C 177.597656 12.746094 177.960938 13.105469 177.960938 13.554688 L 177.960938 13.960938 C 177.960938 14.40625 177.597656 14.769531 177.152344 14.769531 Z M 177.152344 14.769531 " fill-opacity="1" fill-rule="nonzero"/><g clip-path="url(#b97ecb3826)"><path fill="#ff5c5c" d="M 152.425781 4.359375 C 147.941406 4.519531 144.453125 8.339844 144.453125 12.828125 L 144.453125 24.546875 C 144.453125 24.660156 144.589844 24.710938 144.664062 24.632812 L 146.933594 22.15625 C 147.082031 21.992188 147.339844 21.992188 147.488281 22.15625 L 149.683594 24.550781 C 149.839844 24.71875 150.101562 24.71875 150.253906 24.550781 L 152.449219 22.15625 C 152.601562 21.992188 152.855469 21.992188 153.003906 22.15625 L 155.203125 24.550781 C 155.355469 24.71875 155.617188 24.71875 155.769531 24.550781 L 157.96875 22.15625 C 158.117188 21.992188 158.375 21.992188 158.523438 22.15625 L 160.792969 24.632812 C 160.867188 24.710938 161.003906 24.660156 161.003906 24.546875 L 161.003906 12.628906 C 161.003906 7.957031 157.132812 4.191406 152.425781 4.359375 Z M 152.425781 4.359375 " fill-opacity="1" fill-rule="nonzero"/></g><g clip-path="url(#1267ceabaf)"><path fill="#f04747" d="M 148.589844 13.386719 C 148.589844 9.132812 151.730469 5.480469 155.878906 4.976562 C 154.820312 4.539062 153.652344 4.316406 152.425781 4.359375 C 147.941406 4.519531 144.453125 8.339844 144.453125 12.828125 L 144.453125 24.546875 C 144.453125 24.660156 144.589844 24.710938 144.664062 24.632812 L 146.933594 22.15625 C 147.082031 21.992188 147.339844 21.992188 147.488281 22.15625 L 148.589844 23.355469 Z M 148.589844 13.386719 " fill-opacity="1" fill-rule="nonzero"/></g><path fill="#ffffff" d="M 149.964844 16.390625 C 148.734375 16.390625 147.738281 15.394531 147.738281 14.164062 L 147.738281 13.351562 C 147.738281 12.121094 148.734375 11.125 149.964844 11.125 C 151.195312 11.125 152.191406 12.121094 152.191406 13.351562 L 152.191406 14.164062 C 152.191406 15.394531 151.195312 16.390625 149.964844 16.390625 Z M 149.964844 16.390625 " fill-opacity="1" fill-rule="nonzero"/><path fill="#e4eaf6" d="M 151.179688 15.984375 C 149.949219 15.984375 148.953125 14.988281 148.953125 13.757812 L 148.953125 12.945312 C 148.953125 12.195312 149.324219 11.53125 149.898438 11.128906 C 148.699219 11.164062 147.738281 12.144531 147.738281 13.351562 L 147.738281 14.164062 C 147.738281 15.394531 148.734375 16.390625 149.964844 16.390625 C 150.441406 16.390625 150.886719 16.238281 151.25 15.980469 C 151.226562 15.980469 151.203125 15.984375 151.179688 15.984375 Z M 151.179688 15.984375 " fill-opacity="1" fill-rule="nonzero"/><path fill="#82b9ff" d="M 150.574219 14.769531 C 150.125 14.769531 149.761719 14.40625 149.761719 13.960938 L 149.761719 13.554688 C 149.761719 13.105469 150.125 12.746094 150.574219 12.746094 C 151.019531 12.746094 151.382812 13.105469 151.382812 13.554688 L 151.382812 13.960938 C 151.382812 14.40625 151.019531 14.769531 150.574219 14.769531 Z M 150.574219 14.769531 " fill-opacity="1" fill-rule="nonzero"/><path fill="#ffffff" d="M 155.492188 16.390625 C 154.261719 16.390625 153.261719 15.394531 153.261719 14.164062 L 153.261719 13.351562 C 153.261719 12.121094 154.261719 11.125 155.492188 11.125 C 156.722656 11.125 157.71875 12.121094 157.71875 13.351562 L 157.71875 14.164062 C 157.71875 15.394531 156.722656 16.390625 155.492188 16.390625 Z M 155.492188 16.390625 " fill-opacity="1" fill-rule="nonzero"/><path fill="#e4eaf6" d="M 156.707031 15.984375 C 155.476562 15.984375 154.480469 14.988281 154.480469 13.757812 L 154.480469 12.945312 C 154.480469 12.195312 154.851562 11.53125 155.421875 11.128906 C 154.226562 11.164062 153.261719 12.144531 153.261719 13.351562 L 153.261719 14.164062 C 153.261719 15.394531 154.261719 16.390625 155.492188 16.390625 C 155.96875 16.390625 156.410156 16.238281 156.773438 15.980469 C 156.75 15.980469 156.730469 15.984375 156.707031 15.984375 Z M 156.707031 15.984375 " fill-opacity="1" fill-rule="nonzero"/><path fill="#82b9ff" d="M 156.097656 14.769531 C 155.652344 14.769531 155.289062 14.40625 155.289062 13.960938 L 155.289062 13.554688 C 155.289062 13.105469 155.652344 12.746094 156.097656 12.746094 C 156.546875 12.746094 156.910156 13.105469 156.910156 13.554688 L 156.910156 13.960938 C 156.910156 14.40625 156.546875 14.769531 156.097656 14.769531 Z M 156.097656 14.769531 " fill-opacity="1" fill-rule="nonzero"/><g clip-path="url(#35c7cac86f)"><path fill="#ffa05a" d="M 131.375 4.359375 C 126.890625 4.519531 123.402344 8.339844 123.402344 12.828125 L 123.402344 24.546875 C 123.402344 24.660156 123.539062 24.710938 123.613281 24.632812 L 125.882812 22.15625 C 126.03125 21.992188 126.289062 21.992188 126.4375 22.15625 L 128.632812 24.550781 C 128.785156 24.71875 129.050781 24.71875 129.203125 24.550781 L 131.398438 22.15625 C 131.546875 21.992188 131.804688 21.992188 131.953125 22.15625 L 134.148438 24.550781 C 134.304688 24.71875 134.566406 24.71875 134.71875 24.550781 L 136.917969 22.15625 C 137.066406 21.992188 137.320312 21.992188 137.472656 22.15625 L 139.742188 24.632812 C 139.816406 24.710938 139.953125 24.660156 139.953125 24.546875 L 139.953125 12.628906 C 139.953125 7.957031 136.082031 4.191406 131.375 4.359375 Z M 131.375 4.359375 " fill-opacity="1" fill-rule="nonzero"/></g><g clip-path="url(#6b7fcc217c)"><path fill="#f08c46" d="M 127.539062 13.386719 C 127.539062 9.132812 130.675781 5.480469 134.828125 4.976562 C 133.769531 4.539062 132.601562 4.316406 131.375 4.359375 C 126.890625 4.519531 123.402344 8.339844 123.402344 12.828125 L 123.402344 24.546875 C 123.402344 24.660156 123.539062 24.710938 123.613281 24.632812 L 125.882812 22.15625 C 126.03125 21.992188 126.289062 21.992188 126.4375 22.15625 L 127.539062 23.355469 Z M 127.539062 13.386719 " fill-opacity="1" fill-rule="nonzero"/></g><path fill="#ffffff" d="M 128.914062 16.390625 C 127.683594 16.390625 126.683594 15.394531 126.683594 14.164062 L 126.683594 13.351562 C 126.683594 12.121094 127.683594 11.125 128.914062 11.125 C 130.144531 11.125 131.140625 12.121094 131.140625 13.351562 L 131.140625 14.164062 C 131.140625 15.394531 130.144531 16.390625 128.914062 16.390625 Z M 128.914062 16.390625 " fill-opacity="1" fill-rule="nonzero"/><path fill="#e4eaf6" d="M 130.128906 15.984375 C 128.898438 15.984375 127.902344 14.988281 127.902344 13.757812 L 127.902344 12.945312 C 127.902344 12.195312 128.273438 11.53125 128.84375 11.128906 C 127.648438 11.164062 126.683594 12.144531 126.683594 13.351562 L 126.683594 14.164062 C 126.683594 15.394531 127.683594 16.390625 128.914062 16.390625 C 129.390625 16.390625 129.832031 16.238281 130.195312 15.980469 C 130.171875 15.980469 130.152344 15.984375 130.128906 15.984375 Z M 130.128906 15.984375 " fill-opacity="1" fill-rule="nonzero"/><path fill="#82b9ff" d="M 129.519531 14.769531 C 129.074219 14.769531 128.710938 14.40625 128.710938 13.960938 L 128.710938 13.554688 C 128.710938 13.105469 129.074219 12.746094 129.519531 12.746094 C 129.96875 12.746094 130.332031 13.105469 130.332031 13.554688 L 130.332031 13.960938 C 130.332031 14.40625 129.96875 14.769531 129.519531 14.769531 Z M 129.519531 14.769531 " fill-opacity="1" fill-rule="nonzero"/><path fill="#ffffff" d="M 134.441406 16.390625 C 133.210938 16.390625 132.210938 15.394531 132.210938 14.164062 L 132.210938 13.351562 C 132.210938 12.121094 133.210938 11.125 134.441406 11.125 C 135.671875 11.125 136.667969 12.121094 136.667969 13.351562 L 136.667969 14.164062 C 136.667969 15.394531 135.671875 16.390625 134.441406 16.390625 Z M 134.441406 16.390625 " fill-opacity="1" fill-rule="nonzero"/><path fill="#e4eaf6" d="M 135.65625 15.984375 C 134.425781 15.984375 133.425781 14.988281 133.425781 13.757812 L 133.425781 12.945312 C 133.425781 12.195312 133.800781 11.53125 134.371094 11.128906 C 133.171875 11.164062 132.210938 12.144531 132.210938 13.351562 L 132.210938 14.164062 C 132.210938 15.394531 133.210938 16.390625 134.441406 16.390625 C 134.917969 16.390625 135.359375 16.238281 135.722656 15.980469 C 135.699219 15.980469 135.679688 15.984375 135.65625 15.984375 Z M 135.65625 15.984375 " fill-opacity="1" fill-rule="nonzero"/><path fill="#82b9ff" d="M 135.046875 14.769531 C 134.601562 14.769531 134.238281 14.40625 134.238281 13.960938 L 134.238281 13.554688 C 134.238281 13.105469 134.601562 12.746094 135.046875 12.746094 C 135.496094 12.746094 135.859375 13.105469 135.859375 13.554688 L 135.859375 13.960938 C 135.859375 14.40625 135.496094 14.769531 135.046875 14.769531 Z M 135.046875 14.769531 " fill-opacity="1" fill-rule="nonzero"/><g clip-path="url(#9efd652c03)"><path fill="#5c85ff" d="M 110.324219 4.359375 C 105.839844 4.519531 102.351562 8.339844 102.351562 12.828125 L 102.351562 24.546875 C 102.351562 24.660156 102.484375 24.710938 102.5625 24.632812 L 104.832031 22.15625 C 104.980469 21.992188 105.238281 21.992188 105.386719 22.15625 L 107.582031 24.550781 C 107.734375 24.71875 108 24.71875 108.152344 24.550781 L 110.347656 22.15625 C 110.496094 21.992188 110.753906 21.992188 110.902344 22.15625 L 113.097656 24.550781 C 113.25 24.71875 113.515625 24.71875 113.667969 24.550781 L 115.863281 22.15625 C 116.015625 21.992188 116.269531 21.992188 116.417969 22.15625 L 118.6875 24.632812 C 118.765625 24.710938 118.902344 24.660156 118.902344 24.546875 L 118.902344 12.628906 C 118.902344 7.957031 115.03125 4.191406 110.324219 4.359375 Z M 110.324219 4.359375 " fill-opacity="1" fill-rule="nonzero"/></g><g clip-path="url(#1f04cad47a)"><path fill="#4769f0" d="M 106.488281 13.386719 C 106.488281 9.132812 109.625 5.480469 113.773438 4.976562 C 112.714844 4.539062 111.550781 4.316406 110.324219 4.359375 C 105.839844 4.519531 102.351562 8.339844 102.351562 12.828125 L 102.351562 24.546875 C 102.351562 24.660156 102.484375 24.710938 102.5625 24.632812 L 104.832031 22.15625 C 104.980469 21.992188 105.238281 21.992188 105.386719 22.15625 L 106.488281 23.355469 Z M 106.488281 13.386719 " fill-opacity="1" fill-rule="nonzero"/></g><path fill="#ffffff" d="M 107.863281 16.390625 C 106.632812 16.390625 105.632812 15.394531 105.632812 14.164062 L 105.632812 13.351562 C 105.632812 12.121094 106.632812 11.125 107.863281 11.125 C 109.09375 11.125 110.089844 12.121094 110.089844 13.351562 L 110.089844 14.164062 C 110.089844 15.394531 109.09375 16.390625 107.863281 16.390625 Z M 107.863281 16.390625 " fill-opacity="1" fill-rule="nonzero"/><path fill="#e4eaf6" d="M 109.078125 15.984375 C 107.847656 15.984375 106.847656 14.988281 106.847656 13.757812 L 106.847656 12.945312 C 106.847656 12.195312 107.222656 11.53125 107.792969 11.128906 C 106.59375 11.164062 105.632812 12.144531 105.632812 13.351562 L 105.632812 14.164062 C 105.632812 15.394531 106.632812 16.390625 107.863281 16.390625 C 108.339844 16.390625 108.78125 16.238281 109.144531 15.980469 C 109.121094 15.980469 109.101562 15.984375 109.078125 15.984375 Z M 109.078125 15.984375 " fill-opacity="1" fill-rule="nonzero"/><path fill="#82b9ff" d="M 108.46875 14.769531 C 108.023438 14.769531 107.660156 14.40625 107.660156 13.960938 L 107.660156 13.554688 C 107.660156 13.105469 108.023438 12.746094 108.46875 12.746094 C 108.917969 12.746094 109.28125 13.105469 109.28125 13.554688 L 109.28125 13.960938 C 109.28125 14.40625 108.917969 14.769531 108.46875 14.769531 Z M 108.46875 14.769531 " fill-opacity="1" fill-rule="nonzero"/><path fill="#ffffff" d="M 113.386719 16.390625 C 112.15625 16.390625 111.160156 15.394531 111.160156 14.164062 L 111.160156 13.351562 C 111.160156 12.121094 112.15625 11.125 113.386719 11.125 C 114.617188 11.125 115.617188 12.121094 115.617188 13.351562 L 115.617188 14.164062 C 115.617188 15.394531 114.617188 16.390625 113.386719 16.390625 Z M 113.386719 16.390625 " fill-opacity="1" fill-rule="nonzero"/><path fill="#e4eaf6" d="M 114.605469 15.984375 C 113.375 15.984375 112.375 14.988281 112.375 13.757812 L 112.375 12.945312 C 112.375 12.195312 112.75 11.53125 113.320312 11.128906 C 112.121094 11.164062 111.160156 12.144531 111.160156 13.351562 L 111.160156 14.164062 C 111.160156 15.394531 112.15625 16.390625 113.386719 16.390625 C 113.867188 16.390625 114.308594 16.238281 114.671875 15.980469 C 114.648438 15.980469 114.625 15.984375 114.605469 15.984375 Z M 114.605469 15.984375 " fill-opacity="1" fill-rule="nonzero"/><path fill="#82b9ff" d="M 113.996094 14.769531 C 113.546875 14.769531 113.1875 14.40625 113.1875 13.960938 L 113.1875 13.554688 C 113.1875 13.105469 113.546875 12.746094 113.996094 12.746094 C 114.445312 12.746094 114.804688 13.105469 114.804688 13.554688 L 114.804688 13.960938 C 114.804688 14.40625 114.445312 14.769531 113.996094 14.769531 Z M 113.996094 14.769531 " fill-opacity="1" fill-rule="nonzero"/><path fill="#ed5564" d="M 254.433594 12.046875 C 253.101562 12.046875 252.015625 13.132812 252.015625 14.464844 C 252.015625 15.800781 253.101562 16.886719 254.433594 16.886719 C 255.765625 16.886719 256.855469 15.800781 256.855469 14.464844 C 256.855469 13.132812 255.769531 12.046875 254.433594 12.046875 Z M 254.433594 12.046875 " fill-opacity="1" fill-rule="nonzero"/><g clip-path="url(#725c53820d)"><path fill="#ed5564" d="M 260.484375 12.046875 C 259.148438 12.046875 258.0625 13.132812 258.0625 14.464844 C 258.0625 15.800781 259.148438 16.886719 260.484375 16.886719 C 261.816406 16.886719 262.902344 15.800781 262.902344 14.464844 C 262.902344 13.132812 261.816406 12.046875 260.484375 12.046875 Z M 260.484375 12.046875 " fill-opacity="1" fill-rule="nonzero"/></g><g clip-path="url(#8b40d2b336)"><path fill="#ffce54" d="M 252.292969 10.269531 L 251.996094 9.742188 C 251.5625 8.96875 251.023438 8.253906 250.390625 7.625 C 248.5625 5.792969 246.132812 4.789062 243.546875 4.789062 C 240.960938 4.789062 238.53125 5.792969 236.703125 7.625 C 234.875 9.449219 233.871094 11.878906 233.871094 14.464844 C 233.871094 17.050781 234.875 19.480469 236.703125 21.308594 C 238.53125 23.136719 240.960938 24.144531 243.546875 24.144531 C 246.132812 24.144531 248.5625 23.136719 250.390625 21.308594 C 251.023438 20.675781 251.5625 19.960938 251.996094 19.1875 L 252.292969 18.660156 L 244.785156 14.464844 Z M 252.292969 10.269531 " fill-opacity="1" fill-rule="nonzero"/></g><path fill="#ffffff" d="M 254.257812 14.289062 C 254.019531 14.523438 253.636719 14.523438 253.402344 14.289062 C 253.164062 14.050781 253.164062 13.667969 253.402344 13.433594 C 253.636719 13.195312 254.019531 13.195312 254.257812 13.433594 C 254.492188 13.667969 254.492188 14.050781 254.257812 14.289062 Z M 254.257812 14.289062 " fill-opacity="0.2" fill-rule="nonzero"/><path fill="#ffffff" d="M 260.304688 14.289062 C 260.070312 14.523438 259.683594 14.523438 259.449219 14.289062 C 259.214844 14.050781 259.214844 13.667969 259.449219 13.433594 C 259.683594 13.195312 260.070312 13.195312 260.304688 13.433594 C 260.542969 13.667969 260.542969 14.050781 260.304688 14.289062 Z M 260.304688 14.289062 " fill-opacity="0.2" fill-rule="nonzero"/><path fill="#ed5564" d="M 266.808594 12.046875 C 265.476562 12.046875 264.390625 13.132812 264.390625 14.464844 C 264.390625 15.800781 265.476562 16.886719 266.808594 16.886719 C 268.144531 16.886719 269.230469 15.800781 269.230469 14.464844 C 269.230469 13.132812 268.144531 12.046875 266.808594 12.046875 Z M 266.808594 12.046875 " fill-opacity="1" fill-rule="nonzero"/><g clip-path="url(#5dc4c5f00c)"><path fill="#ed5564" d="M 272.859375 12.046875 C 271.523438 12.046875 270.4375 13.132812 270.4375 14.464844 C 270.4375 15.800781 271.523438 16.886719 272.859375 16.886719 C 274.191406 16.886719 275.277344 15.800781 275.277344 14.464844 C 275.277344 13.132812 274.191406 12.046875 272.859375 12.046875 Z M 272.859375 12.046875 " fill-opacity="1" fill-rule="nonzero"/></g><g clip-path="url(#65ea6e7f7c)"><path fill="#ffce54" d="M 264.667969 10.269531 L 264.375 9.742188 C 263.9375 8.96875 263.398438 8.253906 262.765625 7.625 C 260.9375 5.792969 258.507812 4.789062 255.921875 4.789062 C 253.339844 4.789062 250.90625 5.792969 249.078125 7.625 C 247.253906 9.449219 246.246094 11.878906 246.246094 14.464844 C 246.246094 17.050781 247.253906 19.480469 249.078125 21.308594 C 250.90625 23.136719 253.339844 24.144531 255.921875 24.144531 C 258.507812 24.144531 260.9375 23.136719 262.765625 21.308594 C 263.398438 20.675781 263.9375 19.960938 264.375 19.1875 L 264.667969 18.660156 L 257.164062 14.464844 Z M 264.667969 10.269531 " fill-opacity="1" fill-rule="nonzero"/></g><g clip-path="url(#09195ce730)"><path fill="#ffffff" d="M 257.132812 22.933594 C 254.546875 22.933594 252.117188 21.925781 250.289062 20.097656 C 248.460938 18.269531 247.457031 15.839844 247.457031 13.257812 C 247.457031 10.957031 248.25 8.78125 249.710938 7.042969 C 249.492188 7.226562 249.28125 7.417969 249.078125 7.625 C 247.253906 9.449219 246.246094 11.878906 246.246094 14.464844 C 246.246094 17.050781 247.253906 19.480469 249.078125 21.308594 C 250.90625 23.136719 253.339844 24.144531 255.921875 24.144531 C 258.507812 24.144531 260.9375 23.136719 262.765625 21.308594 C 262.96875 21.105469 263.160156 20.894531 263.34375 20.675781 C 261.605469 22.136719 259.429688 22.933594 257.132812 22.933594 Z M 257.132812 22.933594 " fill-opacity="0.2" fill-rule="nonzero"/></g><path fill="#ffffff" d="M 266.632812 14.289062 C 266.398438 14.523438 266.015625 14.523438 265.777344 14.289062 C 265.539062 14.050781 265.539062 13.667969 265.777344 13.433594 C 266.015625 13.195312 266.398438 13.195312 266.632812 13.433594 C 266.871094 13.667969 266.871094 14.050781 266.632812 14.289062 Z M 266.632812 14.289062 " fill-opacity="0.2" fill-rule="nonzero"/><path fill="#ffffff" d="M 272.683594 14.289062 C 272.445312 14.523438 272.0625 14.523438 271.824219 14.289062 C 271.589844 14.050781 271.589844 13.667969 271.824219 13.433594 C 272.0625 13.195312 272.445312 13.195312 272.683594 13.433594 C 272.917969 13.667969 272.917969 14.050781 272.683594 14.289062 Z M 272.683594 14.289062 " fill-opacity="0.2" fill-rule="nonzero"/><g clip-path="url(#901f7e8fd6)"><path fill="#ed5564" d="M 279.1875 12.046875 C 277.851562 12.046875 276.765625 13.132812 276.765625 14.464844 C 276.765625 15.800781 277.851562 16.886719 279.1875 16.886719 C 280.519531 16.886719 281.605469 15.800781 281.605469 14.464844 C 281.605469 13.132812 280.519531 12.046875 279.1875 12.046875 Z M 279.1875 12.046875 " fill-opacity="1" fill-rule="nonzero"/></g><g clip-path="url(#62fa8ca81d)"><path fill="#ed5564" d="M 285.234375 12.046875 C 283.902344 12.046875 282.816406 13.132812 282.816406 14.464844 C 282.816406 15.800781 283.902344 16.886719 285.234375 16.886719 C 286.570312 16.886719 287.65625 15.800781 287.65625 14.464844 C 287.65625 13.132812 286.570312 12.046875 285.234375 12.046875 Z M 285.234375 12.046875 " fill-opacity="1" fill-rule="nonzero"/></g><g clip-path="url(#79763111f4)"><path fill="#ffce54" d="M 277.042969 10.269531 L 276.75 9.742188 C 276.316406 8.96875 275.773438 8.253906 275.140625 7.625 C 273.316406 5.792969 270.882812 4.789062 268.300781 4.789062 C 265.714844 4.789062 263.285156 5.792969 261.457031 7.625 C 259.628906 9.449219 258.621094 11.878906 258.621094 14.464844 C 258.621094 17.050781 259.628906 19.480469 261.457031 21.308594 C 263.285156 23.136719 265.714844 24.144531 268.300781 24.144531 C 270.882812 24.144531 273.316406 23.136719 275.140625 21.308594 C 275.773438 20.675781 276.316406 19.960938 276.75 19.1875 L 277.042969 18.660156 L 269.539062 14.464844 Z M 277.042969 10.269531 " fill-opacity="1" fill-rule="nonzero"/></g><path fill="#ffffff" d="M 279.007812 14.289062 C 278.773438 14.523438 278.390625 14.523438 278.15625 14.289062 C 277.917969 14.050781 277.917969 13.667969 278.15625 13.433594 C 278.390625 13.195312 278.773438 13.195312 279.007812 13.433594 C 279.246094 13.667969 279.246094 14.050781 279.007812 14.289062 Z M 279.007812 14.289062 " fill-opacity="0.2" fill-rule="nonzero"/><path fill="#ffffff" d="M 285.058594 14.289062 C 284.820312 14.523438 284.4375 14.523438 284.203125 14.289062 C 283.96875 14.050781 283.96875 13.667969 284.203125 13.433594 C 284.4375 13.195312 284.820312 13.195312 285.058594 13.433594 C 285.292969 13.667969 285.292969 14.050781 285.058594 14.289062 Z M 285.058594 14.289062 " fill-opacity="0.2" fill-rule="nonzero"/><path fill="#ed5564" d="M 291.5625 12.046875 C 290.230469 12.046875 289.144531 13.132812 289.144531 14.464844 C 289.144531 15.800781 290.230469 16.886719 291.5625 16.886719 C 292.898438 16.886719 293.984375 15.800781 293.984375 14.464844 C 293.984375 13.132812 292.898438 12.046875 291.5625 12.046875 Z M 291.5625 12.046875 " fill-opacity="1" fill-rule="nonzero"/><g clip-path="url(#474b23b662)"><path fill="#ed5564" d="M 297.613281 12.046875 C 296.277344 12.046875 295.191406 13.132812 295.191406 14.464844 C 295.191406 15.800781 296.277344 16.886719 297.613281 16.886719 C 298.945312 16.886719 300.03125 15.800781 300.03125 14.464844 C 300.03125 13.132812 298.945312 12.046875 297.613281 12.046875 Z M 297.613281 12.046875 " fill-opacity="1" fill-rule="nonzero"/></g><g clip-path="url(#5c4103bf31)"><path fill="#ffce54" d="M 289.421875 10.269531 L 289.125 9.742188 C 288.691406 8.96875 288.152344 8.253906 287.519531 7.625 C 285.691406 5.792969 283.261719 4.789062 280.675781 4.789062 C 278.089844 4.789062 275.660156 5.792969 273.832031 7.625 C 272.003906 9.449219 271 11.878906 271 14.464844 C 271 17.050781 272.003906 19.480469 273.832031 21.308594 C 275.660156 23.136719 278.089844 24.144531 280.675781 24.144531 C 283.261719 24.144531 285.691406 23.136719 287.519531 21.308594 C 288.152344 20.675781 288.691406 19.960938 289.125 19.1875 L 289.421875 18.660156 L 281.914062 14.464844 Z M 289.421875 10.269531 " fill-opacity="1" fill-rule="nonzero"/></g><g clip-path="url(#3c3a74ac3d)"><path fill="#ffffff" d="M 281.886719 22.933594 C 279.300781 22.933594 276.871094 21.925781 275.042969 20.097656 C 273.214844 18.269531 272.207031 15.839844 272.207031 13.257812 C 272.207031 10.957031 273.003906 8.78125 274.464844 7.042969 C 274.246094 7.226562 274.035156 7.417969 273.832031 7.625 C 272.003906 9.449219 271 11.878906 271 14.464844 C 271 17.050781 272.003906 19.480469 273.832031 21.308594 C 275.660156 23.136719 278.089844 24.144531 280.675781 24.144531 C 283.261719 24.144531 285.691406 23.136719 287.519531 21.308594 C 287.722656 21.105469 287.914062 20.894531 288.097656 20.675781 C 286.359375 22.136719 284.183594 22.933594 281.886719 22.933594 Z M 281.886719 22.933594 " fill-opacity="0.2" fill-rule="nonzero"/></g><path fill="#ffffff" d="M 291.386719 14.289062 C 291.148438 14.523438 290.765625 14.523438 290.53125 14.289062 C 290.292969 14.050781 290.292969 13.667969 290.53125 13.433594 C 290.765625 13.195312 291.148438 13.195312 291.386719 13.433594 C 291.621094 13.667969 291.621094 14.050781 291.386719 14.289062 Z M 291.386719 14.289062 " fill-opacity="0.2" fill-rule="nonzero"/><path fill="#ffffff" d="M 297.433594 14.289062 C 297.199219 14.523438 296.816406 14.523438 296.578125 14.289062 C 296.34375 14.050781 296.34375 13.667969 296.578125 13.433594 C 296.816406 13.195312 297.199219 13.195312 297.433594 13.433594 C 297.671875 13.667969 297.671875 14.050781 297.433594 14.289062 Z M 297.433594 14.289062 " fill-opacity="0.2" fill-rule="nonzero"/><path fill="#ed5564" d="M 303.9375 12.046875 C 302.605469 12.046875 301.519531 13.132812 301.519531 14.464844 C 301.519531 15.800781 302.605469 16.886719 303.9375 16.886719 C 305.273438 16.886719 306.359375 15.800781 306.359375 14.464844 C 306.359375 13.132812 305.273438 12.046875 303.9375 12.046875 Z M 303.9375 12.046875 " fill-opacity="1" fill-rule="nonzero"/><g clip-path="url(#558f2a4f88)"><path fill="#ed5564" d="M 309.988281 12.046875 C 308.652344 12.046875 307.566406 13.132812 307.566406 14.464844 C 307.566406 15.800781 308.652344 16.886719 309.988281 16.886719 C 311.320312 16.886719 312.40625 15.800781 312.40625 14.464844 C 312.40625 13.132812 311.320312 12.046875 309.988281 12.046875 Z M 309.988281 12.046875 " fill-opacity="1" fill-rule="nonzero"/></g><g clip-path="url(#1b98d92750)"><path fill="#ffce54" d="M 301.796875 10.269531 L 301.503906 9.742188 C 301.066406 8.96875 300.527344 8.253906 299.894531 7.625 C 298.066406 5.792969 295.636719 4.789062 293.050781 4.789062 C 290.46875 4.789062 288.035156 5.792969 286.210938 7.625 C 284.382812 9.449219 283.375 11.878906 283.375 14.464844 C 283.375 17.050781 284.382812 19.480469 286.210938 21.308594 C 288.035156 23.136719 290.46875 24.144531 293.050781 24.144531 C 295.636719 24.144531 298.066406 23.136719 299.894531 21.308594 C 300.527344 20.675781 301.066406 19.960938 301.503906 19.1875 L 301.796875 18.660156 L 294.292969 14.464844 Z M 301.796875 10.269531 " fill-opacity="1" fill-rule="nonzero"/></g><g clip-path="url(#561870e514)"><path fill="#ffffff" d="M 294.261719 22.933594 C 291.675781 22.933594 289.246094 21.925781 287.417969 20.097656 C 285.589844 18.269531 284.585938 15.839844 284.585938 13.257812 C 284.585938 10.957031 285.378906 8.78125 286.839844 7.042969 C 286.621094 7.226562 286.410156 7.417969 286.210938 7.625 C 284.382812 9.449219 283.375 11.878906 283.375 14.464844 C 283.375 17.050781 284.382812 19.480469 286.210938 21.308594 C 288.035156 23.136719 290.46875 24.144531 293.050781 24.144531 C 295.636719 24.144531 298.066406 23.136719 299.894531 21.308594 C 300.097656 21.105469 300.292969 20.894531 300.472656 20.675781 C 298.734375 22.136719 296.558594 22.933594 294.261719 22.933594 Z M 294.261719 22.933594 " fill-opacity="0.2" fill-rule="nonzero"/></g><path fill="#ffffff" d="M 303.761719 14.289062 C 303.527344 14.523438 303.144531 14.523438 302.90625 14.289062 C 302.671875 14.050781 302.671875 13.667969 302.90625 13.433594 C 303.144531 13.195312 303.527344 13.195312 303.761719 13.433594 C 304 13.667969 304 14.050781 303.761719 14.289062 Z M 303.761719 14.289062 " fill-opacity="0.2" fill-rule="nonzero"/><path fill="#ffffff" d="M 309.8125 14.289062 C 309.574219 14.523438 309.191406 14.523438 308.957031 14.289062 C 308.71875 14.050781 308.71875 13.667969 308.957031 13.433594 C 309.191406 13.195312 309.574219 13.195312 309.8125 13.433594 C 310.046875 13.667969 310.046875 14.050781 309.8125 14.289062 Z M 309.8125 14.289062 " fill-opacity="0.2" fill-rule="nonzero"/><g clip-path="url(#b6f5f26ed6)"><path fill="#ed5564" d="M 316.316406 12.046875 C 314.980469 12.046875 313.894531 13.132812 313.894531 14.464844 C 313.894531 15.800781 314.980469 16.886719 316.316406 16.886719 C 317.648438 16.886719 318.734375 15.800781 318.734375 14.464844 C 318.734375 13.132812 317.648438 12.046875 316.316406 12.046875 Z M 316.316406 12.046875 " fill-opacity="1" fill-rule="nonzero"/></g><g clip-path="url(#6ea3d395c2)"><path fill="#ed5564" d="M 322.363281 12.046875 C 321.03125 12.046875 319.945312 13.132812 319.945312 14.464844 C 319.945312 15.800781 321.03125 16.886719 322.363281 16.886719 C 323.699219 16.886719 324.785156 15.800781 324.785156 14.464844 C 324.785156 13.132812 323.699219 12.046875 322.363281 12.046875 Z M 322.363281 12.046875 " fill-opacity="1" fill-rule="nonzero"/></g><g clip-path="url(#c4992570c6)"><path fill="#ffce54" d="M 314.171875 10.269531 L 313.878906 9.742188 C 313.445312 8.96875 312.902344 8.253906 312.269531 7.625 C 310.445312 5.792969 308.011719 4.789062 305.429688 4.789062 C 302.84375 4.789062 300.414062 5.792969 298.585938 7.625 C 296.757812 9.449219 295.75 11.878906 295.75 14.464844 C 295.75 17.050781 296.757812 19.480469 298.585938 21.308594 C 300.414062 23.136719 302.84375 24.144531 305.429688 24.144531 C 308.011719 24.144531 310.445312 23.136719 312.269531 21.308594 C 312.902344 20.675781 313.445312 19.960938 313.878906 19.1875 L 314.171875 18.660156 L 306.667969 14.464844 Z M 314.171875 10.269531 " fill-opacity="1" fill-rule="nonzero"/></g><path fill="#ffffff" d="M 316.136719 14.289062 C 315.902344 14.523438 315.519531 14.523438 315.285156 14.289062 C 315.046875 14.050781 315.046875 13.667969 315.285156 13.433594 C 315.519531 13.195312 315.902344 13.195312 316.136719 13.433594 C 316.375 13.667969 316.375 14.050781 316.136719 14.289062 Z M 316.136719 14.289062 " fill-opacity="0.2" fill-rule="nonzero"/><path fill="#ffffff" d="M 322.1875 14.289062 C 321.949219 14.523438 321.566406 14.523438 321.332031 14.289062 C 321.097656 14.050781 321.097656 13.667969 321.332031 13.433594 C 321.566406 13.195312 321.949219 13.195312 322.1875 13.433594 C 322.421875 13.667969 322.421875 14.050781 322.1875 14.289062 Z M 322.1875 14.289062 " fill-opacity="0.2" fill-rule="nonzero"/><path fill="#ed5564" d="M 328.691406 12.046875 C 327.359375 12.046875 326.273438 13.132812 326.273438 14.464844 C 326.273438 15.800781 327.359375 16.886719 328.691406 16.886719 C 330.027344 16.886719 331.113281 15.800781 331.113281 14.464844 C 331.113281 13.132812 330.027344 12.046875 328.691406 12.046875 Z M 328.691406 12.046875 " fill-opacity="1" fill-rule="nonzero"/><g clip-path="url(#f49c5988b7)"><path fill="#ed5564" d="M 334.742188 12.046875 C 333.40625 12.046875 332.320312 13.132812 332.320312 14.464844 C 332.320312 15.800781 333.40625 16.886719 334.742188 16.886719 C 336.074219 16.886719 337.160156 15.800781 337.160156 14.464844 C 337.160156 13.132812 336.074219 12.046875 334.742188 12.046875 Z M 334.742188 12.046875 " fill-opacity="1" fill-rule="nonzero"/></g><g clip-path="url(#41ac1036b6)"><path fill="#ffce54" d="M 326.550781 10.269531 L 326.253906 9.742188 C 325.820312 8.96875 325.28125 8.253906 324.648438 7.625 C 322.820312 5.792969 320.390625 4.789062 317.804688 4.789062 C 315.21875 4.789062 312.789062 5.792969 310.960938 7.625 C 309.132812 9.449219 308.128906 11.878906 308.128906 14.464844 C 308.128906 17.050781 309.132812 19.480469 310.960938 21.308594 C 312.789062 23.136719 315.21875 24.144531 317.804688 24.144531 C 320.390625 24.144531 322.820312 23.136719 324.648438 21.308594 C 325.28125 20.675781 325.820312 19.960938 326.253906 19.1875 L 326.550781 18.660156 L 319.042969 14.464844 Z M 326.550781 10.269531 " fill-opacity="1" fill-rule="nonzero"/></g><g clip-path="url(#f37abaa83a)"><path fill="#ffffff" d="M 319.015625 22.933594 C 316.429688 22.933594 314 21.925781 312.171875 20.097656 C 310.34375 18.269531 309.335938 15.839844 309.335938 13.257812 C 309.335938 10.957031 310.132812 8.78125 311.59375 7.042969 C 311.375 7.226562 311.164062 7.417969 310.960938 7.625 C 309.132812 9.449219 308.128906 11.878906 308.128906 14.464844 C 308.128906 17.050781 309.132812 19.480469 310.960938 21.308594 C 312.789062 23.136719 315.21875 24.144531 317.804688 24.144531 C 320.390625 24.144531 322.820312 23.136719 324.648438 21.308594 C 324.851562 21.105469 325.042969 20.894531 325.226562 20.675781 C 323.488281 22.136719 321.3125 22.933594 319.015625 22.933594 Z M 319.015625 22.933594 " fill-opacity="0.2" fill-rule="nonzero"/></g><path fill="#ffffff" d="M 328.515625 14.289062 C 328.277344 14.523438 327.894531 14.523438 327.660156 14.289062 C 327.421875 14.050781 327.421875 13.667969 327.660156 13.433594 C 327.894531 13.195312 328.277344 13.195312 328.515625 13.433594 C 328.75 13.667969 328.75 14.050781 328.515625 14.289062 Z M 328.515625 14.289062 " fill-opacity="0.2" fill-rule="nonzero"/><path fill="#ffffff" d="M 334.5625 14.289062 C 334.328125 14.523438 333.945312 14.523438 333.707031 14.289062 C 333.472656 14.050781 333.472656 13.667969 333.707031 13.433594 C 333.945312 13.195312 334.328125 13.195312 334.5625 13.433594 C 334.800781 13.667969 334.800781 14.050781 334.5625 14.289062 Z M 334.5625 14.289062 " fill-opacity="0.2" fill-rule="nonzero"/><path fill="#ed5564" d="M 341.066406 12.046875 C 339.734375 12.046875 338.648438 13.132812 338.648438 14.464844 C 338.648438 15.800781 339.734375 16.886719 341.066406 16.886719 C 342.402344 16.886719 343.488281 15.800781 343.488281 14.464844 C 343.488281 13.132812 342.402344 12.046875 341.066406 12.046875 Z M 341.066406 12.046875 " fill-opacity="1" fill-rule="nonzero"/><g clip-path="url(#2d2c8b7983)"><path fill="#ed5564" d="M 347.117188 12.046875 C 345.78125 12.046875 344.695312 13.132812 344.695312 14.464844 C 344.695312 15.800781 345.78125 16.886719 347.117188 16.886719 C 348.449219 16.886719 349.535156 15.800781 349.535156 14.464844 C 349.535156 13.132812 348.449219 12.046875 347.117188 12.046875 Z M 347.117188 12.046875 " fill-opacity="1" fill-rule="nonzero"/></g><g clip-path="url(#3390c1b49d)"><path fill="#ffce54" d="M 338.925781 10.269531 L 338.632812 9.742188 C 338.195312 8.96875 337.65625 8.253906 337.023438 7.625 C 335.195312 5.792969 332.765625 4.789062 330.179688 4.789062 C 327.597656 4.789062 325.167969 5.792969 323.339844 7.625 C 321.511719 9.449219 320.503906 11.878906 320.503906 14.464844 C 320.503906 17.050781 321.511719 19.480469 323.339844 21.308594 C 325.167969 23.136719 327.597656 24.144531 330.179688 24.144531 C 332.765625 24.144531 335.195312 23.136719 337.023438 21.308594 C 337.65625 20.675781 338.195312 19.960938 338.632812 19.1875 L 338.925781 18.660156 L 331.421875 14.464844 Z M 338.925781 10.269531 " fill-opacity="1" fill-rule="nonzero"/></g><g clip-path="url(#f6d1ce4ebc)"><path fill="#ffffff" d="M 331.390625 22.933594 C 328.804688 22.933594 326.375 21.925781 324.546875 20.097656 C 322.71875 18.269531 321.714844 15.839844 321.714844 13.257812 C 321.714844 10.957031 322.511719 8.78125 323.96875 7.042969 C 323.753906 7.226562 323.542969 7.417969 323.339844 7.625 C 321.511719 9.449219 320.503906 11.878906 320.503906 14.464844 C 320.503906 17.050781 321.511719 19.480469 323.339844 21.308594 C 325.167969 23.136719 327.597656 24.144531 330.179688 24.144531 C 332.765625 24.144531 335.195312 23.136719 337.023438 21.308594 C 337.226562 21.105469 337.421875 20.894531 337.605469 20.675781 C 335.863281 22.136719 333.6875 22.933594 331.390625 22.933594 Z M 331.390625 22.933594 " fill-opacity="0.2" fill-rule="nonzero"/></g><path fill="#ffffff" d="M 340.890625 14.289062 C 340.65625 14.523438 340.273438 14.523438 340.035156 14.289062 C 339.800781 14.050781 339.800781 13.667969 340.035156 13.433594 C 340.273438 13.195312 340.65625 13.195312 340.890625 13.433594 C 341.128906 13.667969 341.128906 14.050781 340.890625 14.289062 Z M 340.890625 14.289062 " fill-opacity="0.2" fill-rule="nonzero"/><path fill="#ffffff" d="M 346.941406 14.289062 C 346.703125 14.523438 346.320312 14.523438 346.085938 14.289062 C 345.847656 14.050781 345.847656 13.667969 346.085938 13.433594 C 346.320312 13.195312 346.703125 13.195312 346.941406 13.433594 C 347.175781 13.667969 347.175781 14.050781 346.941406 14.289062 Z M 346.941406 14.289062 " fill-opacity="0.2" fill-rule="nonzero"/><path fill="#ed5564" d="M 353.445312 12.046875 C 352.109375 12.046875 351.027344 13.132812 351.027344 14.464844 C 351.027344 15.800781 352.109375 16.886719 353.445312 16.886719 C 354.777344 16.886719 355.863281 15.800781 355.863281 14.464844 C 355.863281 13.132812 354.777344 12.046875 353.445312 12.046875 Z M 353.445312 12.046875 " fill-opacity="1" fill-rule="nonzero"/><g clip-path="url(#f74cd7410d)"><path fill="#ed5564" d="M 359.492188 12.046875 C 358.160156 12.046875 357.074219 13.132812 357.074219 14.464844 C 357.074219 15.800781 358.160156 16.886719 359.492188 16.886719 C 360.828125 16.886719 361.914062 15.800781 361.914062 14.464844 C 361.914062 13.132812 360.828125 12.046875 359.492188 12.046875 Z M 359.492188 12.046875 " fill-opacity="1" fill-rule="nonzero"/></g><g clip-path="url(#d59249b98d)"><path fill="#ffce54" d="M 351.304688 10.269531 L 351.007812 9.742188 C 350.574219 8.96875 350.03125 8.253906 349.402344 7.625 C 347.574219 5.792969 345.140625 4.789062 342.558594 4.789062 C 339.972656 4.789062 337.542969 5.792969 335.714844 7.625 C 333.886719 9.449219 332.878906 11.878906 332.878906 14.464844 C 332.878906 17.050781 333.886719 19.480469 335.714844 21.308594 C 337.542969 23.136719 339.972656 24.144531 342.558594 24.144531 C 345.140625 24.144531 347.574219 23.136719 349.402344 21.308594 C 350.03125 20.675781 350.574219 19.960938 351.007812 19.1875 L 351.304688 18.660156 L 343.796875 14.464844 Z M 351.304688 10.269531 " fill-opacity="1" fill-rule="nonzero"/></g><path fill="#ffffff" d="M 353.265625 14.289062 C 353.03125 14.523438 352.648438 14.523438 352.414062 14.289062 C 352.175781 14.050781 352.175781 13.667969 352.414062 13.433594 C 352.648438 13.195312 353.03125 13.195312 353.265625 13.433594 C 353.503906 13.667969 353.503906 14.050781 353.265625 14.289062 Z M 353.265625 14.289062 " fill-opacity="0.2" fill-rule="nonzero"/><path fill="#ffffff" d="M 359.316406 14.289062 C 359.078125 14.523438 358.695312 14.523438 358.460938 14.289062 C 358.226562 14.050781 358.226562 13.667969 358.460938 13.433594 C 358.695312 13.195312 359.078125 13.195312 359.316406 13.433594 C 359.550781 13.667969 359.550781 14.050781 359.316406 14.289062 Z M 359.316406 14.289062 " fill-opacity="0.2" fill-rule="nonzero"/><path fill="#ed5564" d="M 365.820312 12.046875 C 364.488281 12.046875 363.402344 13.132812 363.402344 14.464844 C 363.402344 15.800781 364.488281 16.886719 365.820312 16.886719 C 367.15625 16.886719 368.242188 15.800781 368.242188 14.464844 C 368.242188 13.132812 367.15625 12.046875 365.820312 12.046875 Z M 365.820312 12.046875 " fill-opacity="1" fill-rule="nonzero"/><g clip-path="url(#7f2b1db9d3)"><path fill="#ed5564" d="M 371.871094 12.046875 C 370.535156 12.046875 369.449219 13.132812 369.449219 14.464844 C 369.449219 15.800781 370.535156 16.886719 371.871094 16.886719 C 373.203125 16.886719 374.289062 15.800781 374.289062 14.464844 C 374.289062 13.132812 373.203125 12.046875 371.871094 12.046875 Z M 371.871094 12.046875 " fill-opacity="1" fill-rule="nonzero"/></g><g clip-path="url(#17d3739407)"><path fill="#ffce54" d="M 363.679688 10.269531 L 363.382812 9.742188 C 362.949219 8.96875 362.410156 8.253906 361.777344 7.625 C 359.949219 5.792969 357.519531 4.789062 354.933594 4.789062 C 352.347656 4.789062 349.917969 5.792969 348.089844 7.625 C 346.261719 9.449219 345.257812 11.878906 345.257812 14.464844 C 345.257812 17.050781 346.261719 19.480469 348.089844 21.308594 C 349.917969 23.136719 352.347656 24.144531 354.933594 24.144531 C 357.519531 24.144531 359.949219 23.136719 361.777344 21.308594 C 362.410156 20.675781 362.949219 19.960938 363.382812 19.1875 L 363.679688 18.660156 L 356.175781 14.464844 Z M 363.679688 10.269531 " fill-opacity="1" fill-rule="nonzero"/></g><path fill="#ffffff" d="M 365.644531 14.289062 C 365.40625 14.523438 365.023438 14.523438 364.789062 14.289062 C 364.550781 14.050781 364.550781 13.667969 364.789062 13.433594 C 365.023438 13.195312 365.40625 13.195312 365.644531 13.433594 C 365.878906 13.667969 365.878906 14.050781 365.644531 14.289062 Z M 365.644531 14.289062 " fill-opacity="0.2" fill-rule="nonzero"/><path fill="#ffffff" d="M 371.691406 14.289062 C 371.457031 14.523438 371.074219 14.523438 370.835938 14.289062 C 370.601562 14.050781 370.601562 13.667969 370.835938 13.433594 C 371.074219 13.195312 371.457031 13.195312 371.691406 13.433594 C 371.929688 13.667969 371.929688 14.050781 371.691406 14.289062 Z M 371.691406 14.289062 " fill-opacity="0.2" fill-rule="nonzero"/><path fill="#ed5564" d="M 17.011719 12.046875 C 15.679688 12.046875 14.59375 13.132812 14.59375 14.464844 C 14.59375 15.800781 15.679688 16.886719 17.011719 16.886719 C 18.347656 16.886719 19.433594 15.800781 19.433594 14.464844 C 19.433594 13.132812 18.347656 12.046875 17.011719 12.046875 Z M 17.011719 12.046875 " fill-opacity="1" fill-rule="nonzero"/><g clip-path="url(#2c7553b6e9)"><path fill="#ed5564" d="M 23.0625 12.046875 C 21.726562 12.046875 20.640625 13.132812 20.640625 14.464844 C 20.640625 15.800781 21.726562 16.886719 23.0625 16.886719 C 24.394531 16.886719 25.480469 15.800781 25.480469 14.464844 C 25.480469 13.132812 24.394531 12.046875 23.0625 12.046875 Z M 23.0625 12.046875 " fill-opacity="1" fill-rule="nonzero"/></g><g clip-path="url(#509f4d2ffa)"><path fill="#ffce54" d="M 14.871094 10.269531 L 14.574219 9.742188 C 14.140625 8.96875 13.601562 8.253906 12.96875 7.625 C 11.140625 5.792969 8.710938 4.789062 6.125 4.789062 C 3.539062 4.789062 1.109375 5.792969 -0.71875 7.625 C -2.546875 9.449219 -3.550781 11.878906 -3.550781 14.464844 C -3.550781 17.050781 -2.546875 19.480469 -0.71875 21.308594 C 1.109375 23.136719 3.539062 24.144531 6.125 24.144531 C 8.710938 24.144531 11.140625 23.136719 12.96875 21.308594 C 13.601562 20.675781 14.140625 19.960938 14.574219 19.1875 L 14.871094 18.660156 L 7.363281 14.464844 Z M 14.871094 10.269531 " fill-opacity="1" fill-rule="nonzero"/></g><g clip-path="url(#1943d3a568)"><path fill="#ffffff" d="M 7.335938 22.933594 C 4.75 22.933594 2.320312 21.925781 0.492188 20.097656 C -1.335938 18.269531 -2.34375 15.839844 -2.34375 13.257812 C -2.34375 10.957031 -1.546875 8.78125 -0.0859375 7.042969 C -0.304688 7.226562 -0.515625 7.417969 -0.71875 7.625 C -2.546875 9.449219 -3.550781 11.878906 -3.550781 14.464844 C -3.550781 17.050781 -2.546875 19.480469 -0.71875 21.308594 C 1.109375 23.136719 3.539062 24.144531 6.125 24.144531 C 8.710938 24.144531 11.140625 23.136719 12.96875 21.308594 C 13.171875 21.105469 13.363281 20.894531 13.546875 20.675781 C 11.808594 22.136719 9.632812 22.933594 7.335938 22.933594 Z M 7.335938 22.933594 " fill-opacity="0.2" fill-rule="nonzero"/></g><path fill="#ffffff" d="M 16.835938 14.289062 C 16.597656 14.523438 16.214844 14.523438 15.980469 14.289062 C 15.742188 14.050781 15.742188 13.667969 15.980469 13.433594 C 16.214844 13.195312 16.597656 13.195312 16.835938 13.433594 C 17.070312 13.667969 17.070312 14.050781 16.835938 14.289062 Z M 16.835938 14.289062 " fill-opacity="0.2" fill-rule="nonzero"/><path fill="#ffffff" d="M 22.882812 14.289062 C 22.648438 14.523438 22.261719 14.523438 22.027344 14.289062 C 21.792969 14.050781 21.792969 13.667969 22.027344 13.433594 C 22.261719 13.195312 22.648438 13.195312 22.882812 13.433594 C 23.121094 13.667969 23.121094 14.050781 22.882812 14.289062 Z M 22.882812 14.289062 " fill-opacity="0.2" fill-rule="nonzero"/><g clip-path="url(#80f80938a2)"><path fill="#ed5564" d="M 29.386719 12.046875 C 28.054688 12.046875 26.96875 13.132812 26.96875 14.464844 C 26.96875 15.800781 28.054688 16.886719 29.386719 16.886719 C 30.722656 16.886719 31.808594 15.800781 31.808594 14.464844 C 31.808594 13.132812 30.722656 12.046875 29.386719 12.046875 Z M 29.386719 12.046875 " fill-opacity="1" fill-rule="nonzero"/></g><g clip-path="url(#917c313ed5)"><path fill="#ed5564" d="M 35.4375 12.046875 C 34.101562 12.046875 33.015625 13.132812 33.015625 14.464844 C 33.015625 15.800781 34.101562 16.886719 35.4375 16.886719 C 36.769531 16.886719 37.855469 15.800781 37.855469 14.464844 C 37.855469 13.132812 36.769531 12.046875 35.4375 12.046875 Z M 35.4375 12.046875 " fill-opacity="1" fill-rule="nonzero"/></g><g clip-path="url(#0e6b491699)"><path fill="#ffce54" d="M 27.246094 10.269531 L 26.953125 9.742188 C 26.515625 8.96875 25.976562 8.253906 25.34375 7.625 C 23.515625 5.792969 21.085938 4.789062 18.5 4.789062 C 15.917969 4.789062 13.484375 5.792969 11.65625 7.625 C 9.832031 9.449219 8.824219 11.878906 8.824219 14.464844 C 8.824219 17.050781 9.832031 19.480469 11.65625 21.308594 C 13.484375 23.136719 15.917969 24.144531 18.5 24.144531 C 21.085938 24.144531 23.515625 23.136719 25.34375 21.308594 C 25.976562 20.675781 26.515625 19.960938 26.953125 19.1875 L 27.246094 18.660156 L 19.742188 14.464844 Z M 27.246094 10.269531 " fill-opacity="1" fill-rule="nonzero"/></g><path fill="#ffffff" d="M 29.210938 14.289062 C 28.976562 14.523438 28.59375 14.523438 28.355469 14.289062 C 28.117188 14.050781 28.117188 13.667969 28.355469 13.433594 C 28.59375 13.195312 28.976562 13.195312 29.210938 13.433594 C 29.449219 13.667969 29.449219 14.050781 29.210938 14.289062 Z M 29.210938 14.289062 " fill-opacity="0.2" fill-rule="nonzero"/><path fill="#ffffff" d="M 35.261719 14.289062 C 35.023438 14.523438 34.640625 14.523438 34.40625 14.289062 C 34.167969 14.050781 34.167969 13.667969 34.40625 13.433594 C 34.640625 13.195312 35.023438 13.195312 35.261719 13.433594 C 35.496094 13.667969 35.496094 14.050781 35.261719 14.289062 Z M 35.261719 14.289062 " fill-opacity="0.2" fill-rule="nonzero"/><path fill="#ed5564" d="M 41.765625 12.046875 C 40.429688 12.046875 39.34375 13.132812 39.34375 14.464844 C 39.34375 15.800781 40.429688 16.886719 41.765625 16.886719 C 43.097656 16.886719 44.183594 15.800781 44.183594 14.464844 C 44.183594 13.132812 43.097656 12.046875 41.765625 12.046875 Z M 41.765625 12.046875 " fill-opacity="1" fill-rule="nonzero"/><g clip-path="url(#4ec21fccdb)"><path fill="#ed5564" d="M 47.8125 12.046875 C 46.480469 12.046875 45.394531 13.132812 45.394531 14.464844 C 45.394531 15.800781 46.480469 16.886719 47.8125 16.886719 C 49.148438 16.886719 50.234375 15.800781 50.234375 14.464844 C 50.234375 13.132812 49.148438 12.046875 47.8125 12.046875 Z M 47.8125 12.046875 " fill-opacity="1" fill-rule="nonzero"/></g><g clip-path="url(#195fcbcb97)"><path fill="#ffce54" d="M 39.621094 10.269531 L 39.328125 9.742188 C 38.894531 8.96875 38.351562 8.253906 37.71875 7.625 C 35.894531 5.792969 33.460938 4.789062 30.878906 4.789062 C 28.292969 4.789062 25.863281 5.792969 24.035156 7.625 C 22.207031 9.449219 21.199219 11.878906 21.199219 14.464844 C 21.199219 17.050781 22.207031 19.480469 24.035156 21.308594 C 25.863281 23.136719 28.292969 24.144531 30.878906 24.144531 C 33.460938 24.144531 35.894531 23.136719 37.71875 21.308594 C 38.351562 20.675781 38.894531 19.960938 39.328125 19.1875 L 39.621094 18.660156 L 32.117188 14.464844 Z M 39.621094 10.269531 " fill-opacity="1" fill-rule="nonzero"/></g><g clip-path="url(#715d88fb03)"><path fill="#ffffff" d="M 32.085938 22.933594 C 29.503906 22.933594 27.074219 21.925781 25.242188 20.097656 C 23.417969 18.269531 22.410156 15.839844 22.410156 13.257812 C 22.410156 10.957031 23.207031 8.78125 24.667969 7.042969 C 24.449219 7.226562 24.238281 7.417969 24.035156 7.625 C 22.207031 9.449219 21.199219 11.878906 21.199219 14.464844 C 21.199219 17.050781 22.207031 19.480469 24.035156 21.308594 C 25.863281 23.136719 28.292969 24.144531 30.878906 24.144531 C 33.460938 24.144531 35.894531 23.136719 37.71875 21.308594 C 37.921875 21.105469 38.117188 20.894531 38.300781 20.675781 C 36.5625 22.136719 34.386719 22.933594 32.085938 22.933594 Z M 32.085938 22.933594 " fill-opacity="0.2" fill-rule="nonzero"/></g><path fill="#ffffff" d="M 41.585938 14.289062 C 41.351562 14.523438 40.96875 14.523438 40.734375 14.289062 C 40.496094 14.050781 40.496094 13.667969 40.734375 13.433594 C 40.96875 13.195312 41.351562 13.195312 41.585938 13.433594 C 41.824219 13.667969 41.824219 14.050781 41.585938 14.289062 Z M 41.585938 14.289062 " fill-opacity="0.2" fill-rule="nonzero"/><path fill="#ffffff" d="M 47.636719 14.289062 C 47.398438 14.523438 47.015625 14.523438 46.78125 14.289062 C 46.546875 14.050781 46.546875 13.667969 46.78125 13.433594 C 47.015625 13.195312 47.398438 13.195312 47.636719 13.433594 C 47.871094 13.667969 47.871094 14.050781 47.636719 14.289062 Z M 47.636719 14.289062 " fill-opacity="0.2" fill-rule="nonzero"/><path fill="#ed5564" d="M 54.140625 12.046875 C 52.808594 12.046875 51.722656 13.132812 51.722656 14.464844 C 51.722656 15.800781 52.808594 16.886719 54.140625 16.886719 C 55.476562 16.886719 56.5625 15.800781 56.5625 14.464844 C 56.5625 13.132812 55.476562 12.046875 54.140625 12.046875 Z M 54.140625 12.046875 " fill-opacity="1" fill-rule="nonzero"/><g clip-path="url(#9a667e8572)"><path fill="#ed5564" d="M 60.191406 12.046875 C 58.855469 12.046875 57.769531 13.132812 57.769531 14.464844 C 57.769531 15.800781 58.855469 16.886719 60.191406 16.886719 C 61.523438 16.886719 62.609375 15.800781 62.609375 14.464844 C 62.609375 13.132812 61.523438 12.046875 60.191406 12.046875 Z M 60.191406 12.046875 " fill-opacity="1" fill-rule="nonzero"/></g><g clip-path="url(#608d4cd4a9)"><path fill="#ffce54" d="M 52 10.269531 L 51.703125 9.742188 C 51.269531 8.96875 50.730469 8.253906 50.097656 7.625 C 48.269531 5.792969 45.839844 4.789062 43.253906 4.789062 C 40.667969 4.789062 38.238281 5.792969 36.410156 7.625 C 34.582031 9.449219 33.578125 11.878906 33.578125 14.464844 C 33.578125 17.050781 34.582031 19.480469 36.410156 21.308594 C 38.238281 23.136719 40.667969 24.144531 43.253906 24.144531 C 45.839844 24.144531 48.269531 23.136719 50.097656 21.308594 C 50.730469 20.675781 51.269531 19.960938 51.703125 19.1875 L 52 18.660156 L 44.492188 14.464844 Z M 52 10.269531 " fill-opacity="1" fill-rule="nonzero"/></g><path fill="#ffffff" d="M 53.964844 14.289062 C 53.726562 14.523438 53.34375 14.523438 53.109375 14.289062 C 52.871094 14.050781 52.871094 13.667969 53.109375 13.433594 C 53.34375 13.195312 53.726562 13.195312 53.964844 13.433594 C 54.199219 13.667969 54.199219 14.050781 53.964844 14.289062 Z M 53.964844 14.289062 " fill-opacity="0.2" fill-rule="nonzero"/><path fill="#ffffff" d="M 60.011719 14.289062 C 59.777344 14.523438 59.394531 14.523438 59.15625 14.289062 C 58.921875 14.050781 58.921875 13.667969 59.15625 13.433594 C 59.394531 13.195312 59.777344 13.195312 60.011719 13.433594 C 60.25 13.667969 60.25 14.050781 60.011719 14.289062 Z M 60.011719 14.289062 " fill-opacity="0.2" fill-rule="nonzero"/><path fill="#ed5564" d="M 66.515625 12.046875 C 65.183594 12.046875 64.097656 13.132812 64.097656 14.464844 C 64.097656 15.800781 65.183594 16.886719 66.515625 16.886719 C 67.851562 16.886719 68.9375 15.800781 68.9375 14.464844 C 68.9375 13.132812 67.851562 12.046875 66.515625 12.046875 Z M 66.515625 12.046875 " fill-opacity="1" fill-rule="nonzero"/><g clip-path="url(#845097f8e9)"><path fill="#ed5564" d="M 72.566406 12.046875 C 71.230469 12.046875 70.144531 13.132812 70.144531 14.464844 C 70.144531 15.800781 71.230469 16.886719 72.566406 16.886719 C 73.898438 16.886719 74.984375 15.800781 74.984375 14.464844 C 74.984375 13.132812 73.898438 12.046875 72.566406 12.046875 Z M 72.566406 12.046875 " fill-opacity="1" fill-rule="nonzero"/></g><g clip-path="url(#a20e566c32)"><path fill="#ffce54" d="M 64.375 10.269531 L 64.082031 9.742188 C 63.644531 8.96875 63.105469 8.253906 62.472656 7.625 C 60.644531 5.792969 58.214844 4.789062 55.628906 4.789062 C 53.046875 4.789062 50.613281 5.792969 48.789062 7.625 C 46.960938 9.449219 45.953125 11.878906 45.953125 14.464844 C 45.953125 17.050781 46.960938 19.480469 48.789062 21.308594 C 50.613281 23.136719 53.046875 24.144531 55.628906 24.144531 C 58.214844 24.144531 60.644531 23.136719 62.472656 21.308594 C 63.105469 20.675781 63.644531 19.960938 64.082031 19.1875 L 64.375 18.660156 L 56.871094 14.464844 Z M 64.375 10.269531 " fill-opacity="1" fill-rule="nonzero"/></g><g clip-path="url(#bf57616ba2)"><path fill="#ffffff" d="M 56.839844 22.933594 C 54.253906 22.933594 51.824219 21.925781 49.996094 20.097656 C 48.167969 18.269531 47.164062 15.839844 47.164062 13.257812 C 47.164062 10.957031 47.957031 8.78125 49.417969 7.042969 C 49.199219 7.226562 48.988281 7.417969 48.789062 7.625 C 46.960938 9.449219 45.953125 11.878906 45.953125 14.464844 C 45.953125 17.050781 46.960938 19.480469 48.789062 21.308594 C 50.613281 23.136719 53.046875 24.144531 55.628906 24.144531 C 58.214844 24.144531 60.644531 23.136719 62.472656 21.308594 C 62.675781 21.105469 62.871094 20.894531 63.050781 20.675781 C 61.3125 22.136719 59.136719 22.933594 56.839844 22.933594 Z M 56.839844 22.933594 " fill-opacity="0.2" fill-rule="nonzero"/></g><path fill="#ffffff" d="M 66.339844 14.289062 C 66.105469 14.523438 65.722656 14.523438 65.484375 14.289062 C 65.25 14.050781 65.25 13.667969 65.484375 13.433594 C 65.722656 13.195312 66.105469 13.195312 66.339844 13.433594 C 66.578125 13.667969 66.578125 14.050781 66.339844 14.289062 Z M 66.339844 14.289062 " fill-opacity="0.2" fill-rule="nonzero"/><path fill="#ffffff" d="M 72.390625 14.289062 C 72.152344 14.523438 71.769531 14.523438 71.535156 14.289062 C 71.296875 14.050781 71.296875 13.667969 71.535156 13.433594 C 71.769531 13.195312 72.152344 13.195312 72.390625 13.433594 C 72.625 13.667969 72.625 14.050781 72.390625 14.289062 Z M 72.390625 14.289062 " fill-opacity="0.2" fill-rule="nonzero"/><path fill="#ed5564" d="M 78.894531 12.046875 C 77.558594 12.046875 76.472656 13.132812 76.472656 14.464844 C 76.472656 15.800781 77.558594 16.886719 78.894531 16.886719 C 80.226562 16.886719 81.3125 15.800781 81.3125 14.464844 C 81.3125 13.132812 80.226562 12.046875 78.894531 12.046875 Z M 78.894531 12.046875 " fill-opacity="1" fill-rule="nonzero"/><g clip-path="url(#8195a35c75)"><path fill="#ed5564" d="M 84.941406 12.046875 C 83.609375 12.046875 82.523438 13.132812 82.523438 14.464844 C 82.523438 15.800781 83.609375 16.886719 84.941406 16.886719 C 86.277344 16.886719 87.363281 15.800781 87.363281 14.464844 C 87.363281 13.132812 86.277344 12.046875 84.941406 12.046875 Z M 84.941406 12.046875 " fill-opacity="1" fill-rule="nonzero"/></g><g clip-path="url(#0f40555dc8)"><path fill="#ffce54" d="M 76.75 10.269531 L 76.457031 9.742188 C 76.023438 8.96875 75.480469 8.253906 74.847656 7.625 C 73.023438 5.792969 70.589844 4.789062 68.007812 4.789062 C 65.421875 4.789062 62.992188 5.792969 61.164062 7.625 C 59.335938 9.449219 58.328125 11.878906 58.328125 14.464844 C 58.328125 17.050781 59.335938 19.480469 61.164062 21.308594 C 62.992188 23.136719 65.421875 24.144531 68.007812 24.144531 C 70.589844 24.144531 73.023438 23.136719 74.847656 21.308594 C 75.480469 20.675781 76.023438 19.960938 76.457031 19.1875 L 76.75 18.660156 L 69.246094 14.464844 Z M 76.75 10.269531 " fill-opacity="1" fill-rule="nonzero"/></g><g clip-path="url(#5d28ae6d34)"><path fill="#ffffff" d="M 69.214844 22.933594 C 66.632812 22.933594 64.203125 21.925781 62.371094 20.097656 C 60.546875 18.269531 59.539062 15.839844 59.539062 13.257812 C 59.539062 10.957031 60.335938 8.78125 61.796875 7.042969 C 61.578125 7.226562 61.367188 7.417969 61.164062 7.625 C 59.335938 9.449219 58.328125 11.878906 58.328125 14.464844 C 58.328125 17.050781 59.335938 19.480469 61.164062 21.308594 C 62.992188 23.136719 65.421875 24.144531 68.007812 24.144531 C 70.589844 24.144531 73.023438 23.136719 74.847656 21.308594 C 75.050781 21.105469 75.246094 20.894531 75.429688 20.675781 C 73.691406 22.136719 71.515625 22.933594 69.214844 22.933594 Z M 69.214844 22.933594 " fill-opacity="0.2" fill-rule="nonzero"/></g><path fill="#ffffff" d="M 78.714844 14.289062 C 78.480469 14.523438 78.097656 14.523438 77.863281 14.289062 C 77.625 14.050781 77.625 13.667969 77.863281 13.433594 C 78.097656 13.195312 78.480469 13.195312 78.714844 13.433594 C 78.953125 13.667969 78.953125 14.050781 78.714844 14.289062 Z M 78.714844 14.289062 " fill-opacity="0.2" fill-rule="nonzero"/><path fill="#ffffff" d="M 84.765625 14.289062 C 84.527344 14.523438 84.144531 14.523438 83.910156 14.289062 C 83.675781 14.050781 83.675781 13.667969 83.910156 13.433594 C 84.144531 13.195312 84.527344 13.195312 84.765625 13.433594 C 85 13.667969 85 14.050781 84.765625 14.289062 Z M 84.765625 14.289062 " fill-opacity="0.2" fill-rule="nonzero"/><g clip-path="url(#92cbae1309)"><path fill="#ed5564" d="M 91.269531 12.046875 C 89.9375 12.046875 88.851562 13.132812 88.851562 14.464844 C 88.851562 15.800781 89.9375 16.886719 91.269531 16.886719 C 92.605469 16.886719 93.691406 15.800781 93.691406 14.464844 C 93.691406 13.132812 92.605469 12.046875 91.269531 12.046875 Z M 91.269531 12.046875 " fill-opacity="1" fill-rule="nonzero"/></g><g clip-path="url(#22675a4f63)"><path fill="#ed5564" d="M 97.320312 12.046875 C 95.984375 12.046875 94.898438 13.132812 94.898438 14.464844 C 94.898438 15.800781 95.984375 16.886719 97.320312 16.886719 C 98.652344 16.886719 99.738281 15.800781 99.738281 14.464844 C 99.738281 13.132812 98.652344 12.046875 97.320312 12.046875 Z M 97.320312 12.046875 " fill-opacity="1" fill-rule="nonzero"/></g><g clip-path="url(#c63e58b83a)"><path fill="#ffce54" d="M 89.128906 10.269531 L 88.832031 9.742188 C 88.398438 8.96875 87.859375 8.253906 87.226562 7.625 C 85.398438 5.792969 82.96875 4.789062 80.382812 4.789062 C 77.796875 4.789062 75.367188 5.792969 73.539062 7.625 C 71.710938 9.449219 70.707031 11.878906 70.707031 14.464844 C 70.707031 17.050781 71.710938 19.480469 73.539062 21.308594 C 75.367188 23.136719 77.796875 24.144531 80.382812 24.144531 C 82.96875 24.144531 85.398438 23.136719 87.226562 21.308594 C 87.859375 20.675781 88.398438 19.960938 88.832031 19.1875 L 89.128906 18.660156 L 81.621094 14.464844 Z M 89.128906 10.269531 " fill-opacity="1" fill-rule="nonzero"/></g><path fill="#ffffff" d="M 91.09375 14.289062 C 90.855469 14.523438 90.472656 14.523438 90.238281 14.289062 C 90 14.050781 90 13.667969 90.238281 13.433594 C 90.472656 13.195312 90.855469 13.195312 91.09375 13.433594 C 91.328125 13.667969 91.328125 14.050781 91.09375 14.289062 Z M 91.09375 14.289062 " fill-opacity="0.2" fill-rule="nonzero"/><path fill="#ffffff" d="M 97.140625 14.289062 C 96.90625 14.523438 96.523438 14.523438 96.285156 14.289062 C 96.050781 14.050781 96.050781 13.667969 96.285156 13.433594 C 96.523438 13.195312 96.90625 13.195312 97.140625 13.433594 C 97.378906 13.667969 97.378906 14.050781 97.140625 14.289062 Z M 97.140625 14.289062 " fill-opacity="0.2" fill-rule="nonzero"/><g clip-path="url(#bcd62bfed7)"><path fill="#ed5564" d="M 378.195312 12.046875 C 376.863281 12.046875 375.777344 13.132812 375.777344 14.464844 C 375.777344 15.800781 376.863281 16.886719 378.195312 16.886719 C 379.53125 16.886719 380.617188 15.800781 380.617188 14.464844 C 380.617188 13.132812 379.53125 12.046875 378.195312 12.046875 Z M 378.195312 12.046875 " fill-opacity="1" fill-rule="nonzero"/></g><g clip-path="url(#13bfdbbf1c)"><path fill="#ed5564" d="M 384.246094 12.046875 C 382.914062 12.046875 381.824219 13.132812 381.824219 14.464844 C 381.824219 15.800781 382.914062 16.886719 384.246094 16.886719 C 385.578125 16.886719 386.664062 15.800781 386.664062 14.464844 C 386.664062 13.132812 385.578125 12.046875 384.246094 12.046875 Z M 384.246094 12.046875 " fill-opacity="1" fill-rule="nonzero"/></g><g clip-path="url(#0b48357ef8)"><path fill="#ffce54" d="M 376.054688 10.269531 L 375.761719 9.742188 C 375.328125 8.96875 374.785156 8.253906 374.152344 7.625 C 372.324219 5.792969 369.894531 4.789062 367.308594 4.789062 C 364.726562 4.789062 362.296875 5.792969 360.46875 7.625 C 358.640625 9.449219 357.632812 11.878906 357.632812 14.464844 C 357.632812 17.050781 358.640625 19.480469 360.46875 21.308594 C 362.296875 23.136719 364.726562 24.144531 367.308594 24.144531 C 369.894531 24.144531 372.324219 23.136719 374.152344 21.308594 C 374.785156 20.675781 375.328125 19.960938 375.761719 19.1875 L 376.054688 18.660156 L 368.550781 14.464844 Z M 376.054688 10.269531 " fill-opacity="1" fill-rule="nonzero"/></g><path fill="#ffffff" d="M 378.019531 14.289062 C 377.785156 14.523438 377.402344 14.523438 377.164062 14.289062 C 376.929688 14.050781 376.929688 13.667969 377.164062 13.433594 C 377.402344 13.195312 377.785156 13.195312 378.019531 13.433594 C 378.257812 13.667969 378.257812 14.050781 378.019531 14.289062 Z M 378.019531 14.289062 " fill-opacity="0.2" fill-rule="nonzero"/><path fill="#ffffff" d="M 384.070312 14.289062 C 383.832031 14.523438 383.449219 14.523438 383.214844 14.289062 C 382.976562 14.050781 382.976562 13.667969 383.214844 13.433594 C 383.449219 13.195312 383.832031 13.195312 384.070312 13.433594 C 384.304688 13.667969 384.304688 14.050781 384.070312 14.289062 Z M 384.070312 14.289062 " fill-opacity="0.2" fill-rule="nonzero"/><path fill="#ed5564" d="M 390.574219 12.046875 C 389.238281 12.046875 388.15625 13.132812 388.15625 14.464844 C 388.15625 15.800781 389.238281 16.886719 390.574219 16.886719 C 391.90625 16.886719 392.992188 15.800781 392.992188 14.464844 C 392.992188 13.132812 391.90625 12.046875 390.574219 12.046875 Z M 390.574219 12.046875 " fill-opacity="1" fill-rule="nonzero"/><g clip-path="url(#0bb3bc34ae)"><path fill="#ed5564" d="M 396.621094 12.046875 C 395.289062 12.046875 394.203125 13.132812 394.203125 14.464844 C 394.203125 15.800781 395.289062 16.886719 396.621094 16.886719 C 397.957031 16.886719 399.042969 15.800781 399.042969 14.464844 C 399.042969 13.132812 397.957031 12.046875 396.621094 12.046875 Z M 396.621094 12.046875 " fill-opacity="1" fill-rule="nonzero"/></g><g clip-path="url(#c01ee20306)"><path fill="#ffce54" d="M 388.433594 10.269531 L 388.136719 9.742188 C 387.703125 8.96875 387.164062 8.253906 386.53125 7.625 C 384.703125 5.792969 382.273438 4.789062 379.6875 4.789062 C 377.101562 4.789062 374.671875 5.792969 372.84375 7.625 C 371.015625 9.449219 370.007812 11.878906 370.007812 14.464844 C 370.007812 17.050781 371.015625 19.480469 372.84375 21.308594 C 374.671875 23.136719 377.101562 24.144531 379.6875 24.144531 C 382.273438 24.144531 384.703125 23.136719 386.53125 21.308594 C 387.164062 20.675781 387.703125 19.960938 388.136719 19.1875 L 388.433594 18.660156 L 380.925781 14.464844 Z M 388.433594 10.269531 " fill-opacity="1" fill-rule="nonzero"/></g><g clip-path="url(#022d6fea52)"><path fill="#ffffff" d="M 380.898438 22.933594 C 378.3125 22.933594 375.882812 21.925781 374.054688 20.097656 C 372.226562 18.269531 371.21875 15.839844 371.21875 13.257812 C 371.21875 10.957031 372.015625 8.78125 373.476562 7.042969 C 373.257812 7.226562 373.046875 7.417969 372.84375 7.625 C 371.015625 9.449219 370.007812 11.878906 370.007812 14.464844 C 370.007812 17.050781 371.015625 19.480469 372.84375 21.308594 C 374.671875 23.136719 377.101562 24.144531 379.6875 24.144531 C 382.273438 24.144531 384.703125 23.136719 386.53125 21.308594 C 386.734375 21.105469 386.925781 20.894531 387.109375 20.675781 C 385.371094 22.136719 383.195312 22.933594 380.898438 22.933594 Z M 380.898438 22.933594 " fill-opacity="0.2" fill-rule="nonzero"/></g><path fill="#ffffff" d="M 390.394531 14.289062 C 390.160156 14.523438 389.777344 14.523438 389.542969 14.289062 C 389.304688 14.050781 389.304688 13.667969 389.542969 13.433594 C 389.777344 13.195312 390.160156 13.195312 390.394531 13.433594 C 390.632812 13.667969 390.632812 14.050781 390.394531 14.289062 Z M 390.394531 14.289062 " fill-opacity="0.2" fill-rule="nonzero"/><path fill="#ffffff" d="M 396.445312 14.289062 C 396.210938 14.523438 395.824219 14.523438 395.589844 14.289062 C 395.355469 14.050781 395.355469 13.667969 395.589844 13.433594 C 395.824219 13.195312 396.210938 13.195312 396.445312 13.433594 C 396.679688 13.667969 396.679688 14.050781 396.445312 14.289062 Z M 396.445312 14.289062 " fill-opacity="0.2" fill-rule="nonzero"/><path fill="#ed5564" d="M 402.949219 12.046875 C 401.617188 12.046875 400.53125 13.132812 400.53125 14.464844 C 400.53125 15.800781 401.617188 16.886719 402.949219 16.886719 C 404.285156 16.886719 405.371094 15.800781 405.371094 14.464844 C 405.371094 13.132812 404.285156 12.046875 402.949219 12.046875 Z M 402.949219 12.046875 " fill-opacity="1" fill-rule="nonzero"/><g clip-path="url(#f745fb5e76)"><path fill="#ed5564" d="M 409 12.046875 C 407.664062 12.046875 406.578125 13.132812 406.578125 14.464844 C 406.578125 15.800781 407.664062 16.886719 409 16.886719 C 410.332031 16.886719 411.417969 15.800781 411.417969 14.464844 C 411.417969 13.132812 410.332031 12.046875 409 12.046875 Z M 409 12.046875 " fill-opacity="1" fill-rule="nonzero"/></g><g clip-path="url(#86c2d9734d)"><path fill="#ffce54" d="M 400.808594 10.269531 L 400.511719 9.742188 C 400.078125 8.96875 399.539062 8.253906 398.90625 7.625 C 397.078125 5.792969 394.648438 4.789062 392.0625 4.789062 C 389.476562 4.789062 387.046875 5.792969 385.21875 7.625 C 383.390625 9.449219 382.386719 11.878906 382.386719 14.464844 C 382.386719 17.050781 383.390625 19.480469 385.21875 21.308594 C 387.046875 23.136719 389.476562 24.144531 392.0625 24.144531 C 394.648438 24.144531 397.078125 23.136719 398.90625 21.308594 C 399.539062 20.675781 400.078125 19.960938 400.511719 19.1875 L 400.808594 18.660156 L 393.304688 14.464844 Z M 400.808594 10.269531 " fill-opacity="1" fill-rule="nonzero"/></g><g clip-path="url(#d76b195797)"><path fill="#ffffff" d="M 393.273438 22.933594 C 390.6875 22.933594 388.257812 21.925781 386.429688 20.097656 C 384.601562 18.269531 383.597656 15.839844 383.597656 13.257812 C 383.597656 10.957031 384.390625 8.78125 385.851562 7.042969 C 385.632812 7.226562 385.421875 7.417969 385.21875 7.625 C 383.390625 9.449219 382.386719 11.878906 382.386719 14.464844 C 382.386719 17.050781 383.390625 19.480469 385.21875 21.308594 C 387.046875 23.136719 389.476562 24.144531 392.0625 24.144531 C 394.648438 24.144531 397.078125 23.136719 398.90625 21.308594 C 399.109375 21.105469 399.300781 20.894531 399.484375 20.675781 C 397.746094 22.136719 395.570312 22.933594 393.273438 22.933594 Z M 393.273438 22.933594 " fill-opacity="0.2" fill-rule="nonzero"/></g><path fill="#ffffff" d="M 402.773438 14.289062 C 402.535156 14.523438 402.152344 14.523438 401.917969 14.289062 C 401.679688 14.050781 401.679688 13.667969 401.917969 13.433594 C 402.152344 13.195312 402.535156 13.195312 402.773438 13.433594 C 403.011719 13.667969 403.011719 14.050781 402.773438 14.289062 Z M 402.773438 14.289062 " fill-opacity="0.2" fill-rule="nonzero"/><path fill="#ffffff" d="M 408.820312 14.289062 C 408.585938 14.523438 408.203125 14.523438 407.964844 14.289062 C 407.730469 14.050781 407.730469 13.667969 407.964844 13.433594 C 408.203125 13.195312 408.585938 13.195312 408.820312 13.433594 C 409.058594 13.667969 409.058594 14.050781 408.820312 14.289062 Z M 408.820312 14.289062 " fill-opacity="0.2" fill-rule="nonzero"/><g clip-path="url(#1519d5c710)"><path fill="#ed5564" d="M 415.324219 12.046875 C 413.992188 12.046875 412.90625 13.132812 412.90625 14.464844 C 412.90625 15.800781 413.992188 16.886719 415.324219 16.886719 C 416.660156 16.886719 417.746094 15.800781 417.746094 14.464844 C 417.746094 13.132812 416.660156 12.046875 415.324219 12.046875 Z M 415.324219 12.046875 " fill-opacity="1" fill-rule="nonzero"/></g><g clip-path="url(#68d0ae7687)"><path fill="#ed5564" d="M 421.375 12.046875 C 420.042969 12.046875 418.953125 13.132812 418.953125 14.464844 C 418.953125 15.800781 420.042969 16.886719 421.375 16.886719 C 422.710938 16.886719 423.792969 15.800781 423.792969 14.464844 C 423.792969 13.132812 422.710938 12.046875 421.375 12.046875 Z M 421.375 12.046875 " fill-opacity="1" fill-rule="nonzero"/></g><g clip-path="url(#600a3af879)"><path fill="#ffce54" d="M 413.183594 10.269531 L 412.890625 9.742188 C 412.457031 8.96875 411.914062 8.253906 411.28125 7.625 C 409.453125 5.792969 407.023438 4.789062 404.4375 4.789062 C 401.855469 4.789062 399.425781 5.792969 397.597656 7.625 C 395.769531 9.449219 394.761719 11.878906 394.761719 14.464844 C 394.761719 17.050781 395.769531 19.480469 397.597656 21.308594 C 399.425781 23.136719 401.855469 24.144531 404.4375 24.144531 C 407.023438 24.144531 409.453125 23.136719 411.28125 21.308594 C 411.914062 20.675781 412.457031 19.960938 412.890625 19.1875 L 413.183594 18.660156 L 405.679688 14.464844 Z M 413.183594 10.269531 " fill-opacity="1" fill-rule="nonzero"/></g><path fill="#ffffff" d="M 415.148438 14.289062 C 414.914062 14.523438 414.53125 14.523438 414.292969 14.289062 C 414.058594 14.050781 414.058594 13.667969 414.292969 13.433594 C 414.53125 13.195312 414.914062 13.195312 415.148438 13.433594 C 415.386719 13.667969 415.386719 14.050781 415.148438 14.289062 Z M 415.148438 14.289062 " fill-opacity="0.2" fill-rule="nonzero"/><path fill="#ffffff" d="M 421.199219 14.289062 C 420.960938 14.523438 420.578125 14.523438 420.34375 14.289062 C 420.105469 14.050781 420.105469 13.667969 420.34375 13.433594 C 420.578125 13.195312 420.960938 13.195312 421.199219 13.433594 C 421.433594 13.667969 421.433594 14.050781 421.199219 14.289062 Z M 421.199219 14.289062 " fill-opacity="0.2" fill-rule="nonzero"/><path fill="#ed5564" d="M 427.703125 12.046875 C 426.367188 12.046875 425.285156 13.132812 425.285156 14.464844 C 425.285156 15.800781 426.367188 16.886719 427.703125 16.886719 C 429.035156 16.886719 430.121094 15.800781 430.121094 14.464844 C 430.121094 13.132812 429.035156 12.046875 427.703125 12.046875 Z M 427.703125 12.046875 " fill-opacity="1" fill-rule="nonzero"/><g clip-path="url(#08ec50fa63)"><path fill="#ed5564" d="M 433.75 12.046875 C 432.417969 12.046875 431.332031 13.132812 431.332031 14.464844 C 431.332031 15.800781 432.417969 16.886719 433.75 16.886719 C 435.085938 16.886719 436.171875 15.800781 436.171875 14.464844 C 436.171875 13.132812 435.085938 12.046875 433.75 12.046875 Z M 433.75 12.046875 " fill-opacity="1" fill-rule="nonzero"/></g><g clip-path="url(#91ad4ea21d)"><path fill="#ffce54" d="M 425.5625 10.269531 L 425.265625 9.742188 C 424.832031 8.96875 424.292969 8.253906 423.660156 7.625 C 421.832031 5.792969 419.402344 4.789062 416.816406 4.789062 C 414.230469 4.789062 411.800781 5.792969 409.972656 7.625 C 408.144531 9.449219 407.136719 11.878906 407.136719 14.464844 C 407.136719 17.050781 408.144531 19.480469 409.972656 21.308594 C 411.800781 23.136719 414.230469 24.144531 416.816406 24.144531 C 419.402344 24.144531 421.832031 23.136719 423.660156 21.308594 C 424.292969 20.675781 424.832031 19.960938 425.265625 19.1875 L 425.5625 18.660156 L 418.054688 14.464844 Z M 425.5625 10.269531 " fill-opacity="1" fill-rule="nonzero"/></g><g clip-path="url(#753e6a9bb4)"><path fill="#ffffff" d="M 418.027344 22.933594 C 415.441406 22.933594 413.011719 21.925781 411.183594 20.097656 C 409.355469 18.269531 408.347656 15.839844 408.347656 13.257812 C 408.347656 10.957031 409.144531 8.78125 410.605469 7.042969 C 410.386719 7.226562 410.175781 7.417969 409.972656 7.625 C 408.144531 9.449219 407.136719 11.878906 407.136719 14.464844 C 407.136719 17.050781 408.144531 19.480469 409.972656 21.308594 C 411.800781 23.136719 414.230469 24.144531 416.816406 24.144531 C 419.402344 24.144531 421.832031 23.136719 423.660156 21.308594 C 423.863281 21.105469 424.054688 20.894531 424.238281 20.675781 C 422.5 22.136719 420.324219 22.933594 418.027344 22.933594 Z M 418.027344 22.933594 " fill-opacity="0.2" fill-rule="nonzero"/></g><path fill="#ffffff" d="M 427.523438 14.289062 C 427.289062 14.523438 426.90625 14.523438 426.671875 14.289062 C 426.433594 14.050781 426.433594 13.667969 426.671875 13.433594 C 426.90625 13.195312 427.289062 13.195312 427.523438 13.433594 C 427.761719 13.667969 427.761719 14.050781 427.523438 14.289062 Z M 427.523438 14.289062 " fill-opacity="0.2" fill-rule="nonzero"/><path fill="#ffffff" d="M 433.574219 14.289062 C 433.339844 14.523438 432.953125 14.523438 432.71875 14.289062 C 432.484375 14.050781 432.484375 13.667969 432.71875 13.433594 C 432.953125 13.195312 433.339844 13.195312 433.574219 13.433594 C 433.808594 13.667969 433.808594 14.050781 433.574219 14.289062 Z M 433.574219 14.289062 " fill-opacity="0.2" fill-rule="nonzero"/></svg>